ISO-10303-21;
HEADER;
FILE_DESCRIPTION(('Open CASCADE Model'),'2;1');
FILE_NAME('Open CASCADE Shape Model','2026-07-21T13:04:25',('Author'),(
    'Open CASCADE'),'Open CASCADE STEP processor 7.9','Open CASCADE 7.9'
  ,'Unknown');
FILE_SCHEMA(('AUTOMOTIVE_DESIGN { 1 0 10303 214 1 1 1 1 }'));
ENDSEC;
DATA;
#1 = APPLICATION_PROTOCOL_DEFINITION('international standard',
  'automotive_design',2000,#2);
#2 = APPLICATION_CONTEXT(
  'core data for automotive mechanical design processes');
#3 = SHAPE_DEFINITION_REPRESENTATION(#4,#10);
#4 = PRODUCT_DEFINITION_SHAPE('','',#5);
#5 = PRODUCT_DEFINITION('design','',#6,#9);
#6 = PRODUCT_DEFINITION_FORMATION('','',#7);
#7 = PRODUCT('Open CASCADE STEP translator 7.9 9',
  'Open CASCADE STEP translator 7.9 9','',(#8));
#8 = PRODUCT_CONTEXT('',#2,'mechanical');
#9 = PRODUCT_DEFINITION_CONTEXT('part definition',#2,'design');
#10 = ADVANCED_BREP_SHAPE_REPRESENTATION('',(#11,#15),#1603);
#11 = AXIS2_PLACEMENT_3D('',#12,#13,#14);
#12 = CARTESIAN_POINT('',(0.,0.,0.));
#13 = DIRECTION('',(0.,0.,1.));
#14 = DIRECTION('',(1.,0.,-0.));
#15 = MANIFOLD_SOLID_BREP('',#16);
#16 = CLOSED_SHELL('',(#17,#105,#140,#477,#772,#831,#902,#951,#1000,
    #1049,#1158,#1244,#1298,#1352,#1406,#1460,#1495,#1526,#1576));
#17 = ADVANCED_FACE('',(#18),#32,.T.);
#18 = FACE_BOUND('',#19,.F.);
#19 = EDGE_LOOP('',(#20,#50,#77,#78));
#20 = ORIENTED_EDGE('',*,*,#21,.T.);
#21 = EDGE_CURVE('',#22,#24,#26,.T.);
#22 = VERTEX_POINT('',#23);
#23 = CARTESIAN_POINT('',(30.,0.,154.));
#24 = VERTEX_POINT('',#25);
#25 = CARTESIAN_POINT('',(30.,0.,158.));
#26 = SEAM_CURVE('',#27,(#31,#43),.PCURVE_S1.);
#27 = LINE('',#28,#29);
#28 = CARTESIAN_POINT('',(30.,0.,154.));
#29 = VECTOR('',#30,1.);
#30 = DIRECTION('',(0.,0.,1.));
#31 = PCURVE('',#32,#37);
#32 = CYLINDRICAL_SURFACE('',#33,30.);
#33 = AXIS2_PLACEMENT_3D('',#34,#35,#36);
#34 = CARTESIAN_POINT('',(0.,0.,154.));
#35 = DIRECTION('',(-0.,-0.,-1.));
#36 = DIRECTION('',(1.,0.,0.));
#37 = DEFINITIONAL_REPRESENTATION('',(#38),#42);
#38 = LINE('',#39,#40);
#39 = CARTESIAN_POINT('',(-0.,0.));
#40 = VECTOR('',#41,1.);
#41 = DIRECTION('',(-0.,-1.));
#42 = ( GEOMETRIC_REPRESENTATION_CONTEXT(2) 
PARAMETRIC_REPRESENTATION_CONTEXT() REPRESENTATION_CONTEXT('2D SPACE',''
  ) );
#43 = PCURVE('',#32,#44);
#44 = DEFINITIONAL_REPRESENTATION('',(#45),#49);
#45 = LINE('',#46,#47);
#46 = CARTESIAN_POINT('',(-6.28318530718,0.));
#47 = VECTOR('',#48,1.);
#48 = DIRECTION('',(-0.,-1.));
#49 = ( GEOMETRIC_REPRESENTATION_CONTEXT(2) 
PARAMETRIC_REPRESENTATION_CONTEXT() REPRESENTATION_CONTEXT('2D SPACE',''
  ) );
#50 = ORIENTED_EDGE('',*,*,#51,.T.);
#51 = EDGE_CURVE('',#24,#24,#52,.T.);
#52 = SURFACE_CURVE('',#53,(#58,#65),.PCURVE_S1.);
#53 = CIRCLE('',#54,30.);
#54 = AXIS2_PLACEMENT_3D('',#55,#56,#57);
#55 = CARTESIAN_POINT('',(0.,0.,158.));
#56 = DIRECTION('',(0.,0.,1.));
#57 = DIRECTION('',(1.,0.,0.));
#58 = PCURVE('',#32,#59);
#59 = DEFINITIONAL_REPRESENTATION('',(#60),#64);
#60 = LINE('',#61,#62);
#61 = CARTESIAN_POINT('',(-0.,-4.));
#62 = VECTOR('',#63,1.);
#63 = DIRECTION('',(-1.,0.));
#64 = ( GEOMETRIC_REPRESENTATION_CONTEXT(2) 
PARAMETRIC_REPRESENTATION_CONTEXT() REPRESENTATION_CONTEXT('2D SPACE',''
  ) );
#65 = PCURVE('',#66,#71);
#66 = PLANE('',#67);
#67 = AXIS2_PLACEMENT_3D('',#68,#69,#70);
#68 = CARTESIAN_POINT('',(-1.458602808042E-15,2.339560088947E-16,158.));
#69 = DIRECTION('',(0.,0.,1.));
#70 = DIRECTION('',(1.,0.,-0.));
#71 = DEFINITIONAL_REPRESENTATION('',(#72),#76);
#72 = CIRCLE('',#73,30.);
#73 = AXIS2_PLACEMENT_2D('',#74,#75);
#74 = CARTESIAN_POINT('',(1.458602808042E-15,-2.339560088947E-16));
#75 = DIRECTION('',(1.,0.));
#76 = ( GEOMETRIC_REPRESENTATION_CONTEXT(2) 
PARAMETRIC_REPRESENTATION_CONTEXT() REPRESENTATION_CONTEXT('2D SPACE',''
  ) );
#77 = ORIENTED_EDGE('',*,*,#21,.F.);
#78 = ORIENTED_EDGE('',*,*,#79,.F.);
#79 = EDGE_CURVE('',#22,#22,#80,.T.);
#80 = SURFACE_CURVE('',#81,(#86,#93),.PCURVE_S1.);
#81 = CIRCLE('',#82,30.);
#82 = AXIS2_PLACEMENT_3D('',#83,#84,#85);
#83 = CARTESIAN_POINT('',(0.,0.,154.));
#84 = DIRECTION('',(0.,0.,1.));
#85 = DIRECTION('',(1.,0.,0.));
#86 = PCURVE('',#32,#87);
#87 = DEFINITIONAL_REPRESENTATION('',(#88),#92);
#88 = LINE('',#89,#90);
#89 = CARTESIAN_POINT('',(-0.,0.));
#90 = VECTOR('',#91,1.);
#91 = DIRECTION('',(-1.,0.));
#92 = ( GEOMETRIC_REPRESENTATION_CONTEXT(2) 
PARAMETRIC_REPRESENTATION_CONTEXT() REPRESENTATION_CONTEXT('2D SPACE',''
  ) );
#93 = PCURVE('',#94,#99);
#94 = PLANE('',#95);
#95 = AXIS2_PLACEMENT_3D('',#96,#97,#98);
#96 = CARTESIAN_POINT('',(-1.458602808042E-15,2.339560088947E-16,154.));
#97 = DIRECTION('',(0.,0.,1.));
#98 = DIRECTION('',(1.,0.,-0.));
#99 = DEFINITIONAL_REPRESENTATION('',(#100),#104);
#100 = CIRCLE('',#101,30.);
#101 = AXIS2_PLACEMENT_2D('',#102,#103);
#102 = CARTESIAN_POINT('',(1.458602808042E-15,-2.339560088947E-16));
#103 = DIRECTION('',(1.,0.));
#104 = ( GEOMETRIC_REPRESENTATION_CONTEXT(2) 
PARAMETRIC_REPRESENTATION_CONTEXT() REPRESENTATION_CONTEXT('2D SPACE',''
  ) );
#105 = ADVANCED_FACE('',(#106,#109),#94,.F.);
#106 = FACE_BOUND('',#107,.F.);
#107 = EDGE_LOOP('',(#108));
#108 = ORIENTED_EDGE('',*,*,#79,.T.);
#109 = FACE_BOUND('',#110,.F.);
#110 = EDGE_LOOP('',(#111));
#111 = ORIENTED_EDGE('',*,*,#112,.F.);
#112 = EDGE_CURVE('',#113,#113,#115,.T.);
#113 = VERTEX_POINT('',#114);
#114 = CARTESIAN_POINT('',(25.,0.,154.));
#115 = SURFACE_CURVE('',#116,(#121,#128),.PCURVE_S1.);
#116 = CIRCLE('',#117,25.);
#117 = AXIS2_PLACEMENT_3D('',#118,#119,#120);
#118 = CARTESIAN_POINT('',(0.,0.,154.));
#119 = DIRECTION('',(0.,0.,1.));
#120 = DIRECTION('',(1.,0.,0.));
#121 = PCURVE('',#94,#122);
#122 = DEFINITIONAL_REPRESENTATION('',(#123),#127);
#123 = CIRCLE('',#124,25.);
#124 = AXIS2_PLACEMENT_2D('',#125,#126);
#125 = CARTESIAN_POINT('',(1.458602808042E-15,-2.339560088947E-16));
#126 = DIRECTION('',(1.,0.));
#127 = ( GEOMETRIC_REPRESENTATION_CONTEXT(2) 
PARAMETRIC_REPRESENTATION_CONTEXT() REPRESENTATION_CONTEXT('2D SPACE',''
  ) );
#128 = PCURVE('',#129,#134);
#129 = CYLINDRICAL_SURFACE('',#130,25.);
#130 = AXIS2_PLACEMENT_3D('',#131,#132,#133);
#131 = CARTESIAN_POINT('',(0.,0.,4.));
#132 = DIRECTION('',(-0.,-0.,-1.));
#133 = DIRECTION('',(1.,0.,0.));
#134 = DEFINITIONAL_REPRESENTATION('',(#135),#139);
#135 = LINE('',#136,#137);
#136 = CARTESIAN_POINT('',(-0.,-150.));
#137 = VECTOR('',#138,1.);
#138 = DIRECTION('',(-1.,0.));
#139 = ( GEOMETRIC_REPRESENTATION_CONTEXT(2) 
PARAMETRIC_REPRESENTATION_CONTEXT() REPRESENTATION_CONTEXT('2D SPACE',''
  ) );
#140 = ADVANCED_FACE('',(#141,#144,#179,#337,#372,#407,#442),#66,.T.);
#141 = FACE_BOUND('',#142,.T.);
#142 = EDGE_LOOP('',(#143));
#143 = ORIENTED_EDGE('',*,*,#51,.T.);
#144 = FACE_BOUND('',#145,.T.);
#145 = EDGE_LOOP('',(#146));
#146 = ORIENTED_EDGE('',*,*,#147,.T.);
#147 = EDGE_CURVE('',#148,#148,#150,.T.);
#148 = VERTEX_POINT('',#149);
#149 = CARTESIAN_POINT('',(-10.13525491562,-14.26584774442,158.));
#150 = SURFACE_CURVE('',#151,(#156,#167),.PCURVE_S1.);
#151 = CIRCLE('',#152,5.5);
#152 = AXIS2_PLACEMENT_3D('',#153,#154,#155);
#153 = CARTESIAN_POINT('',(-4.635254915624,-14.26584774442,158.));
#154 = DIRECTION('',(0.,0.,-1.));
#155 = DIRECTION('',(-1.,0.,0.));
#156 = PCURVE('',#66,#157);
#157 = DEFINITIONAL_REPRESENTATION('',(#158),#166);
#158 = ( BOUNDED_CURVE() B_SPLINE_CURVE(2,(#159,#160,#161,#162,#163,#164
,#165),.UNSPECIFIED.,.T.,.F.) B_SPLINE_CURVE_WITH_KNOTS((1,2,2,2,2,1),(
    -2.094395102393,0.,2.094395102393,4.188790204786,6.28318530718,
8.377580409573),.UNSPECIFIED.) CURVE() GEOMETRIC_REPRESENTATION_ITEM() 
RATIONAL_B_SPLINE_CURVE((1.,0.5,1.,0.5,1.,0.5,1.)) REPRESENTATION_ITEM(
  '') );
#159 = CARTESIAN_POINT('',(-10.13525491562,-14.26584774442));
#160 = CARTESIAN_POINT('',(-10.13525491562,-4.739568302798));
#161 = CARTESIAN_POINT('',(-1.885254915624,-9.502708023613));
#162 = CARTESIAN_POINT('',(6.364745084376,-14.26584774442));
#163 = CARTESIAN_POINT('',(-1.885254915624,-19.02898746524));
#164 = CARTESIAN_POINT('',(-10.13525491562,-23.79212718605));
#165 = CARTESIAN_POINT('',(-10.13525491562,-14.26584774442));
#166 = ( GEOMETRIC_REPRESENTATION_CONTEXT(2) 
PARAMETRIC_REPRESENTATION_CONTEXT() REPRESENTATION_CONTEXT('2D SPACE',''
  ) );
#167 = PCURVE('',#168,#173);
#168 = CYLINDRICAL_SURFACE('',#169,5.5);
#169 = AXIS2_PLACEMENT_3D('',#170,#171,#172);
#170 = CARTESIAN_POINT('',(-4.635254915624,-14.26584774442,158.));
#171 = DIRECTION('',(0.,0.,-1.));
#172 = DIRECTION('',(-1.,0.,0.));
#173 = DEFINITIONAL_REPRESENTATION('',(#174),#178);
#174 = LINE('',#175,#176);
#175 = CARTESIAN_POINT('',(0.,0.));
#176 = VECTOR('',#177,1.);
#177 = DIRECTION('',(1.,0.));
#178 = ( GEOMETRIC_REPRESENTATION_CONTEXT(2) 
PARAMETRIC_REPRESENTATION_CONTEXT() REPRESENTATION_CONTEXT('2D SPACE',''
  ) );
#179 = FACE_BOUND('',#180,.T.);
#180 = EDGE_LOOP('',(#181,#209,#235,#261,#287,#313));
#181 = ORIENTED_EDGE('',*,*,#182,.T.);
#182 = EDGE_CURVE('',#183,#185,#187,.T.);
#183 = VERTEX_POINT('',#184);
#184 = CARTESIAN_POINT('',(-3.767210506462,6.525,158.));
#185 = VERTEX_POINT('',#186);
#186 = CARTESIAN_POINT('',(3.767210506462,6.525,158.));
#187 = SURFACE_CURVE('',#188,(#192,#198),.PCURVE_S1.);
#188 = LINE('',#189,#190);
#189 = CARTESIAN_POINT('',(1.883605253231,6.525,158.));
#190 = VECTOR('',#191,1.);
#191 = DIRECTION('',(1.,-1.178827700465E-16,0.));
#192 = PCURVE('',#66,#193);
#193 = DEFINITIONAL_REPRESENTATION('',(#194),#197);
#194 = B_SPLINE_CURVE_WITH_KNOTS('',1,(#195,#196),.UNSPECIFIED.,.F.,.F.,
  (2,2),(-5.650815759693,1.883605253231),.PIECEWISE_BEZIER_KNOTS.);
#195 = CARTESIAN_POINT('',(-3.767210506462,6.525));
#196 = CARTESIAN_POINT('',(3.767210506462,6.525));
#197 = ( GEOMETRIC_REPRESENTATION_CONTEXT(2) 
PARAMETRIC_REPRESENTATION_CONTEXT() REPRESENTATION_CONTEXT('2D SPACE',''
  ) );
#198 = PCURVE('',#199,#204);
#199 = PLANE('',#200);
#200 = AXIS2_PLACEMENT_3D('',#201,#202,#203);
#201 = CARTESIAN_POINT('',(3.767210506462,6.525,-1.999999881264E-07));
#202 = DIRECTION('',(-1.178827700465E-16,-1.,0.));
#203 = DIRECTION('',(-1.,1.178827700465E-16,0.));
#204 = DEFINITIONAL_REPRESENTATION('',(#205),#208);
#205 = B_SPLINE_CURVE_WITH_KNOTS('',1,(#206,#207),.UNSPECIFIED.,.F.,.F.,
  (2,2),(-5.650815759693,1.883605253231),.PIECEWISE_BEZIER_KNOTS.);
#206 = CARTESIAN_POINT('',(7.534421012925,-158.0000002));
#207 = CARTESIAN_POINT('',(0.,-158.0000002));
#208 = ( GEOMETRIC_REPRESENTATION_CONTEXT(2) 
PARAMETRIC_REPRESENTATION_CONTEXT() REPRESENTATION_CONTEXT('2D SPACE',''
  ) );
#209 = ORIENTED_EDGE('',*,*,#210,.T.);
#210 = EDGE_CURVE('',#185,#211,#213,.T.);
#211 = VERTEX_POINT('',#212);
#212 = CARTESIAN_POINT('',(7.534421012925,0.,158.));
#213 = SURFACE_CURVE('',#214,(#218,#224),.PCURVE_S1.);
#214 = LINE('',#215,#216);
#215 = CARTESIAN_POINT('',(6.592618386309,1.63125,158.));
#216 = VECTOR('',#217,1.);
#217 = DIRECTION('',(0.5,-0.866025403784,0.));
#218 = PCURVE('',#66,#219);
#219 = DEFINITIONAL_REPRESENTATION('',(#220),#223);
#220 = B_SPLINE_CURVE_WITH_KNOTS('',1,(#221,#222),.UNSPECIFIED.,.F.,.F.,
  (2,2),(-5.650815759693,1.883605253231),.PIECEWISE_BEZIER_KNOTS.);
#221 = CARTESIAN_POINT('',(3.767210506462,6.525));
#222 = CARTESIAN_POINT('',(7.534421012925,-4.440892098501E-16));
#223 = ( GEOMETRIC_REPRESENTATION_CONTEXT(2) 
PARAMETRIC_REPRESENTATION_CONTEXT() REPRESENTATION_CONTEXT('2D SPACE',''
  ) );
#224 = PCURVE('',#225,#230);
#225 = PLANE('',#226);
#226 = AXIS2_PLACEMENT_3D('',#227,#228,#229);
#227 = CARTESIAN_POINT('',(7.534421012925,0.,-1.999999881264E-07));
#228 = DIRECTION('',(-0.866025403784,-0.5,0.));
#229 = DIRECTION('',(-0.5,0.866025403784,0.));
#230 = DEFINITIONAL_REPRESENTATION('',(#231),#234);
#231 = B_SPLINE_CURVE_WITH_KNOTS('',1,(#232,#233),.UNSPECIFIED.,.F.,.F.,
  (2,2),(-5.650815759693,1.883605253231),.PIECEWISE_BEZIER_KNOTS.);
#232 = CARTESIAN_POINT('',(7.534421012925,-158.0000002));
#233 = CARTESIAN_POINT('',(0.,-158.0000002));
#234 = ( GEOMETRIC_REPRESENTATION_CONTEXT(2) 
PARAMETRIC_REPRESENTATION_CONTEXT() REPRESENTATION_CONTEXT('2D SPACE',''
  ) );
#235 = ORIENTED_EDGE('',*,*,#236,.T.);
#236 = EDGE_CURVE('',#211,#237,#239,.T.);
#237 = VERTEX_POINT('',#238);
#238 = CARTESIAN_POINT('',(3.767210506462,-6.525,158.));
#239 = SURFACE_CURVE('',#240,(#244,#250),.PCURVE_S1.);
#240 = LINE('',#241,#242);
#241 = CARTESIAN_POINT('',(4.709013133078,-4.89375,158.));
#242 = VECTOR('',#243,1.);
#243 = DIRECTION('',(-0.5,-0.866025403784,0.));
#244 = PCURVE('',#66,#245);
#245 = DEFINITIONAL_REPRESENTATION('',(#246),#249);
#246 = B_SPLINE_CURVE_WITH_KNOTS('',1,(#247,#248),.UNSPECIFIED.,.F.,.F.,
  (2,2),(-5.650815759693,1.883605253231),.PIECEWISE_BEZIER_KNOTS.);
#247 = CARTESIAN_POINT('',(7.534421012925,0.));
#248 = CARTESIAN_POINT('',(3.767210506462,-6.525));
#249 = ( GEOMETRIC_REPRESENTATION_CONTEXT(2) 
PARAMETRIC_REPRESENTATION_CONTEXT() REPRESENTATION_CONTEXT('2D SPACE',''
  ) );
#250 = PCURVE('',#251,#256);
#251 = PLANE('',#252);
#252 = AXIS2_PLACEMENT_3D('',#253,#254,#255);
#253 = CARTESIAN_POINT('',(3.767210506462,-6.525,-1.999999881264E-07));
#254 = DIRECTION('',(-0.866025403784,0.5,0.));
#255 = DIRECTION('',(0.5,0.866025403784,0.));
#256 = DEFINITIONAL_REPRESENTATION('',(#257),#260);
#257 = B_SPLINE_CURVE_WITH_KNOTS('',1,(#258,#259),.UNSPECIFIED.,.F.,.F.,
  (2,2),(-5.650815759693,1.883605253231),.PIECEWISE_BEZIER_KNOTS.);
#258 = CARTESIAN_POINT('',(7.534421012925,-158.0000002));
#259 = CARTESIAN_POINT('',(0.,-158.0000002));
#260 = ( GEOMETRIC_REPRESENTATION_CONTEXT(2) 
PARAMETRIC_REPRESENTATION_CONTEXT() REPRESENTATION_CONTEXT('2D SPACE',''
  ) );
#261 = ORIENTED_EDGE('',*,*,#262,.T.);
#262 = EDGE_CURVE('',#237,#263,#265,.T.);
#263 = VERTEX_POINT('',#264);
#264 = CARTESIAN_POINT('',(-3.767210506462,-6.525,158.));
#265 = SURFACE_CURVE('',#266,(#270,#276),.PCURVE_S1.);
#266 = LINE('',#267,#268);
#267 = CARTESIAN_POINT('',(-1.883605253231,-6.525,158.));
#268 = VECTOR('',#269,1.);
#269 = DIRECTION('',(-1.,7.07296620279E-16,0.));
#270 = PCURVE('',#66,#271);
#271 = DEFINITIONAL_REPRESENTATION('',(#272),#275);
#272 = B_SPLINE_CURVE_WITH_KNOTS('',1,(#273,#274),.UNSPECIFIED.,.F.,.F.,
  (2,2),(-5.650815759693,1.883605253231),.PIECEWISE_BEZIER_KNOTS.);
#273 = CARTESIAN_POINT('',(3.767210506462,-6.525));
#274 = CARTESIAN_POINT('',(-3.767210506462,-6.525));
#275 = ( GEOMETRIC_REPRESENTATION_CONTEXT(2) 
PARAMETRIC_REPRESENTATION_CONTEXT() REPRESENTATION_CONTEXT('2D SPACE',''
  ) );
#276 = PCURVE('',#277,#282);
#277 = PLANE('',#278);
#278 = AXIS2_PLACEMENT_3D('',#279,#280,#281);
#279 = CARTESIAN_POINT('',(-3.767210506462,-6.525,-1.999999881264E-07));
#280 = DIRECTION('',(7.07296620279E-16,1.,0.));
#281 = DIRECTION('',(1.,-7.07296620279E-16,0.));
#282 = DEFINITIONAL_REPRESENTATION('',(#283),#286);
#283 = B_SPLINE_CURVE_WITH_KNOTS('',1,(#284,#285),.UNSPECIFIED.,.F.,.F.,
  (2,2),(-5.650815759693,1.883605253231),.PIECEWISE_BEZIER_KNOTS.);
#284 = CARTESIAN_POINT('',(7.534421012925,-158.0000002));
#285 = CARTESIAN_POINT('',(0.,-158.0000002));
#286 = ( GEOMETRIC_REPRESENTATION_CONTEXT(2) 
PARAMETRIC_REPRESENTATION_CONTEXT() REPRESENTATION_CONTEXT('2D SPACE',''
  ) );
#287 = ORIENTED_EDGE('',*,*,#288,.T.);
#288 = EDGE_CURVE('',#263,#289,#291,.T.);
#289 = VERTEX_POINT('',#290);
#290 = CARTESIAN_POINT('',(-7.534421012925,9.227004576907E-16,158.));
#291 = SURFACE_CURVE('',#292,(#296,#302),.PCURVE_S1.);
#292 = LINE('',#293,#294);
#293 = CARTESIAN_POINT('',(-6.592618386309,-1.63125,158.));
#294 = VECTOR('',#295,1.);
#295 = DIRECTION('',(-0.5,0.866025403784,0.));
#296 = PCURVE('',#66,#297);
#297 = DEFINITIONAL_REPRESENTATION('',(#298),#301);
#298 = B_SPLINE_CURVE_WITH_KNOTS('',1,(#299,#300),.UNSPECIFIED.,.F.,.F.,
  (2,2),(-5.650815759693,1.883605253231),.PIECEWISE_BEZIER_KNOTS.);
#299 = CARTESIAN_POINT('',(-3.767210506462,-6.525));
#300 = CARTESIAN_POINT('',(-7.534421012925,8.881784197001E-16));
#301 = ( GEOMETRIC_REPRESENTATION_CONTEXT(2) 
PARAMETRIC_REPRESENTATION_CONTEXT() REPRESENTATION_CONTEXT('2D SPACE',''
  ) );
#302 = PCURVE('',#303,#308);
#303 = PLANE('',#304);
#304 = AXIS2_PLACEMENT_3D('',#305,#306,#307);
#305 = CARTESIAN_POINT('',(-7.534421012925,9.227004576907E-16,
    -1.999999881264E-07));
#306 = DIRECTION('',(0.866025403784,0.5,0.));
#307 = DIRECTION('',(0.5,-0.866025403784,0.));
#308 = DEFINITIONAL_REPRESENTATION('',(#309),#312);
#309 = B_SPLINE_CURVE_WITH_KNOTS('',1,(#310,#311),.UNSPECIFIED.,.F.,.F.,
  (2,2),(-5.650815759693,1.883605253231),.PIECEWISE_BEZIER_KNOTS.);
#310 = CARTESIAN_POINT('',(7.534421012925,-158.0000002));
#311 = CARTESIAN_POINT('',(0.,-158.0000002));
#312 = ( GEOMETRIC_REPRESENTATION_CONTEXT(2) 
PARAMETRIC_REPRESENTATION_CONTEXT() REPRESENTATION_CONTEXT('2D SPACE',''
  ) );
#313 = ORIENTED_EDGE('',*,*,#314,.T.);
#314 = EDGE_CURVE('',#289,#183,#315,.T.);
#315 = SURFACE_CURVE('',#316,(#320,#326),.PCURVE_S1.);
#316 = LINE('',#317,#318);
#317 = CARTESIAN_POINT('',(-4.709013133078,4.89375,158.));
#318 = VECTOR('',#319,1.);
#319 = DIRECTION('',(0.5,0.866025403784,-0.));
#320 = PCURVE('',#66,#321);
#321 = DEFINITIONAL_REPRESENTATION('',(#322),#325);
#322 = B_SPLINE_CURVE_WITH_KNOTS('',1,(#323,#324),.UNSPECIFIED.,.F.,.F.,
  (2,2),(-5.650815759693,1.883605253231),.PIECEWISE_BEZIER_KNOTS.);
#323 = CARTESIAN_POINT('',(-7.534421012925,8.881784197001E-16));
#324 = CARTESIAN_POINT('',(-3.767210506462,6.525));
#325 = ( GEOMETRIC_REPRESENTATION_CONTEXT(2) 
PARAMETRIC_REPRESENTATION_CONTEXT() REPRESENTATION_CONTEXT('2D SPACE',''
  ) );
#326 = PCURVE('',#327,#332);
#327 = PLANE('',#328);
#328 = AXIS2_PLACEMENT_3D('',#329,#330,#331);
#329 = CARTESIAN_POINT('',(-3.767210506462,6.525,-1.999999881264E-07));
#330 = DIRECTION('',(0.866025403784,-0.5,0.));
#331 = DIRECTION('',(-0.5,-0.866025403784,0.));
#332 = DEFINITIONAL_REPRESENTATION('',(#333),#336);
#333 = B_SPLINE_CURVE_WITH_KNOTS('',1,(#334,#335),.UNSPECIFIED.,.F.,.F.,
  (2,2),(-5.650815759693,1.883605253231),.PIECEWISE_BEZIER_KNOTS.);
#334 = CARTESIAN_POINT('',(7.534421012925,-158.0000002));
#335 = CARTESIAN_POINT('',(0.,-158.0000002));
#336 = ( GEOMETRIC_REPRESENTATION_CONTEXT(2) 
PARAMETRIC_REPRESENTATION_CONTEXT() REPRESENTATION_CONTEXT('2D SPACE',''
  ) );
#337 = FACE_BOUND('',#338,.T.);
#338 = EDGE_LOOP('',(#339));
#339 = ORIENTED_EDGE('',*,*,#340,.T.);
#340 = EDGE_CURVE('',#341,#341,#343,.T.);
#341 = VERTEX_POINT('',#342);
#342 = CARTESIAN_POINT('',(6.635254915624,-8.816778784387,158.));
#343 = SURFACE_CURVE('',#344,(#349,#360),.PCURVE_S1.);
#344 = CIRCLE('',#345,5.5);
#345 = AXIS2_PLACEMENT_3D('',#346,#347,#348);
#346 = CARTESIAN_POINT('',(12.135254915624,-8.816778784387,158.));
#347 = DIRECTION('',(0.,0.,-1.));
#348 = DIRECTION('',(-1.,0.,0.));
#349 = PCURVE('',#66,#350);
#350 = DEFINITIONAL_REPRESENTATION('',(#351),#359);
#351 = ( BOUNDED_CURVE() B_SPLINE_CURVE(2,(#352,#353,#354,#355,#356,#357
,#358),.UNSPECIFIED.,.T.,.F.) B_SPLINE_CURVE_WITH_KNOTS((1,2,2,2,2,1),(
    -2.094395102393,0.,2.094395102393,4.188790204786,6.28318530718,
8.377580409573),.UNSPECIFIED.) CURVE() GEOMETRIC_REPRESENTATION_ITEM() 
RATIONAL_B_SPLINE_CURVE((1.,0.5,1.,0.5,1.,0.5,1.)) REPRESENTATION_ITEM(
  '') );
#352 = CARTESIAN_POINT('',(6.635254915624,-8.816778784387));
#353 = CARTESIAN_POINT('',(6.635254915624,0.709500657242));
#354 = CARTESIAN_POINT('',(14.885254915624,-4.053639063573));
#355 = CARTESIAN_POINT('',(23.135254915624,-8.816778784387));
#356 = CARTESIAN_POINT('',(14.885254915624,-13.5799185052));
#357 = CARTESIAN_POINT('',(6.635254915624,-18.34305822601));
#358 = CARTESIAN_POINT('',(6.635254915624,-8.816778784387));
#359 = ( GEOMETRIC_REPRESENTATION_CONTEXT(2) 
PARAMETRIC_REPRESENTATION_CONTEXT() REPRESENTATION_CONTEXT('2D SPACE',''
  ) );
#360 = PCURVE('',#361,#366);
#361 = CYLINDRICAL_SURFACE('',#362,5.5);
#362 = AXIS2_PLACEMENT_3D('',#363,#364,#365);
#363 = CARTESIAN_POINT('',(12.135254915624,-8.816778784387,158.));
#364 = DIRECTION('',(0.,0.,-1.));
#365 = DIRECTION('',(-1.,0.,0.));
#366 = DEFINITIONAL_REPRESENTATION('',(#367),#371);
#367 = LINE('',#368,#369);
#368 = CARTESIAN_POINT('',(0.,0.));
#369 = VECTOR('',#370,1.);
#370 = DIRECTION('',(1.,0.));
#371 = ( GEOMETRIC_REPRESENTATION_CONTEXT(2) 
PARAMETRIC_REPRESENTATION_CONTEXT() REPRESENTATION_CONTEXT('2D SPACE',''
  ) );
#372 = FACE_BOUND('',#373,.T.);
#373 = EDGE_LOOP('',(#374));
#374 = ORIENTED_EDGE('',*,*,#375,.T.);
#375 = EDGE_CURVE('',#376,#376,#378,.T.);
#376 = VERTEX_POINT('',#377);
#377 = CARTESIAN_POINT('',(-20.5,4.898587196589E-16,158.));
#378 = SURFACE_CURVE('',#379,(#384,#395),.PCURVE_S1.);
#379 = CIRCLE('',#380,5.5);
#380 = AXIS2_PLACEMENT_3D('',#381,#382,#383);
#381 = CARTESIAN_POINT('',(-15.,1.836970198721E-15,158.));
#382 = DIRECTION('',(0.,0.,-1.));
#383 = DIRECTION('',(-1.,0.,0.));
#384 = PCURVE('',#66,#385);
#385 = DEFINITIONAL_REPRESENTATION('',(#386),#394);
#386 = ( BOUNDED_CURVE() B_SPLINE_CURVE(2,(#387,#388,#389,#390,#391,#392
,#393),.UNSPECIFIED.,.T.,.F.) B_SPLINE_CURVE_WITH_KNOTS((1,2,2,2,2,1),(
    -2.094395102393,0.,2.094395102393,4.188790204786,6.28318530718,
8.377580409573),.UNSPECIFIED.) CURVE() GEOMETRIC_REPRESENTATION_ITEM() 
RATIONAL_B_SPLINE_CURVE((1.,0.5,1.,0.5,1.,0.5,1.)) REPRESENTATION_ITEM(
  '') );
#387 = CARTESIAN_POINT('',(-20.5,1.603014189826E-15));
#388 = CARTESIAN_POINT('',(-20.5,9.526279441629));
#389 = CARTESIAN_POINT('',(-12.25,4.763139720814));
#390 = CARTESIAN_POINT('',(-4.,2.950125668888E-15));
#391 = CARTESIAN_POINT('',(-12.25,-4.763139720814));
#392 = CARTESIAN_POINT('',(-20.5,-9.526279441629));
#393 = CARTESIAN_POINT('',(-20.5,1.603014189826E-15));
#394 = ( GEOMETRIC_REPRESENTATION_CONTEXT(2) 
PARAMETRIC_REPRESENTATION_CONTEXT() REPRESENTATION_CONTEXT('2D SPACE',''
  ) );
#395 = PCURVE('',#396,#401);
#396 = CYLINDRICAL_SURFACE('',#397,5.5);
#397 = AXIS2_PLACEMENT_3D('',#398,#399,#400);
#398 = CARTESIAN_POINT('',(-15.,1.836970198721E-15,158.));
#399 = DIRECTION('',(0.,0.,-1.));
#400 = DIRECTION('',(-1.,0.,0.));
#401 = DEFINITIONAL_REPRESENTATION('',(#402),#406);
#402 = LINE('',#403,#404);
#403 = CARTESIAN_POINT('',(0.,0.));
#404 = VECTOR('',#405,1.);
#405 = DIRECTION('',(1.,0.));
#406 = ( GEOMETRIC_REPRESENTATION_CONTEXT(2) 
PARAMETRIC_REPRESENTATION_CONTEXT() REPRESENTATION_CONTEXT('2D SPACE',''
  ) );
#407 = FACE_BOUND('',#408,.T.);
#408 = EDGE_LOOP('',(#409));
#409 = ORIENTED_EDGE('',*,*,#410,.T.);
#410 = EDGE_CURVE('',#411,#411,#413,.T.);
#411 = VERTEX_POINT('',#412);
#412 = CARTESIAN_POINT('',(-10.13525491562,14.265847744427,158.));
#413 = SURFACE_CURVE('',#414,(#419,#430),.PCURVE_S1.);
#414 = CIRCLE('',#415,5.5);
#415 = AXIS2_PLACEMENT_3D('',#416,#417,#418);
#416 = CARTESIAN_POINT('',(-4.635254915624,14.265847744427,158.));
#417 = DIRECTION('',(0.,0.,-1.));
#418 = DIRECTION('',(-1.,0.,0.));
#419 = PCURVE('',#66,#420);
#420 = DEFINITIONAL_REPRESENTATION('',(#421),#429);
#421 = ( BOUNDED_CURVE() B_SPLINE_CURVE(2,(#422,#423,#424,#425,#426,#427
,#428),.UNSPECIFIED.,.T.,.F.) B_SPLINE_CURVE_WITH_KNOTS((1,2,2,2,2,1),(
    -2.094395102393,0.,2.094395102393,4.188790204786,6.28318530718,
8.377580409573),.UNSPECIFIED.) CURVE() GEOMETRIC_REPRESENTATION_ITEM() 
RATIONAL_B_SPLINE_CURVE((1.,0.5,1.,0.5,1.,0.5,1.)) REPRESENTATION_ITEM(
  '') );
#422 = CARTESIAN_POINT('',(-10.13525491562,14.265847744427));
#423 = CARTESIAN_POINT('',(-10.13525491562,23.792127186056));
#424 = CARTESIAN_POINT('',(-1.885254915624,19.028987465242));
#425 = CARTESIAN_POINT('',(6.364745084376,14.265847744427));
#426 = CARTESIAN_POINT('',(-1.885254915624,9.502708023613));
#427 = CARTESIAN_POINT('',(-10.13525491562,4.739568302798));
#428 = CARTESIAN_POINT('',(-10.13525491562,14.265847744427));
#429 = ( GEOMETRIC_REPRESENTATION_CONTEXT(2) 
PARAMETRIC_REPRESENTATION_CONTEXT() REPRESENTATION_CONTEXT('2D SPACE',''
  ) );
#430 = PCURVE('',#431,#436);
#431 = CYLINDRICAL_SURFACE('',#432,5.5);
#432 = AXIS2_PLACEMENT_3D('',#433,#434,#435);
#433 = CARTESIAN_POINT('',(-4.635254915624,14.265847744427,158.));
#434 = DIRECTION('',(0.,0.,-1.));
#435 = DIRECTION('',(-1.,0.,0.));
#436 = DEFINITIONAL_REPRESENTATION('',(#437),#441);
#437 = LINE('',#438,#439);
#438 = CARTESIAN_POINT('',(0.,0.));
#439 = VECTOR('',#440,1.);
#440 = DIRECTION('',(1.,0.));
#441 = ( GEOMETRIC_REPRESENTATION_CONTEXT(2) 
PARAMETRIC_REPRESENTATION_CONTEXT() REPRESENTATION_CONTEXT('2D SPACE',''
  ) );
#442 = FACE_BOUND('',#443,.T.);
#443 = EDGE_LOOP('',(#444));
#444 = ORIENTED_EDGE('',*,*,#445,.T.);
#445 = EDGE_CURVE('',#446,#446,#448,.T.);
#446 = VERTEX_POINT('',#447);
#447 = CARTESIAN_POINT('',(6.635254915624,8.816778784387,158.));
#448 = SURFACE_CURVE('',#449,(#454,#465),.PCURVE_S1.);
#449 = CIRCLE('',#450,5.5);
#450 = AXIS2_PLACEMENT_3D('',#451,#452,#453);
#451 = CARTESIAN_POINT('',(12.135254915624,8.816778784387,158.));
#452 = DIRECTION('',(0.,0.,-1.));
#453 = DIRECTION('',(-1.,0.,0.));
#454 = PCURVE('',#66,#455);
#455 = DEFINITIONAL_REPRESENTATION('',(#456),#464);
#456 = ( BOUNDED_CURVE() B_SPLINE_CURVE(2,(#457,#458,#459,#460,#461,#462
,#463),.UNSPECIFIED.,.T.,.F.) B_SPLINE_CURVE_WITH_KNOTS((1,2,2,2,2,1),(
    -2.094395102393,0.,2.094395102393,4.188790204786,6.28318530718,
8.377580409573),.UNSPECIFIED.) CURVE() GEOMETRIC_REPRESENTATION_ITEM() 
RATIONAL_B_SPLINE_CURVE((1.,0.5,1.,0.5,1.,0.5,1.)) REPRESENTATION_ITEM(
  '') );
#457 = CARTESIAN_POINT('',(6.635254915624,8.816778784387));
#458 = CARTESIAN_POINT('',(6.635254915624,18.343058226016));
#459 = CARTESIAN_POINT('',(14.885254915624,13.579918505202));
#460 = CARTESIAN_POINT('',(23.135254915624,8.816778784387));
#461 = CARTESIAN_POINT('',(14.885254915624,4.053639063573));
#462 = CARTESIAN_POINT('',(6.635254915624,-0.709500657242));
#463 = CARTESIAN_POINT('',(6.635254915624,8.816778784387));
#464 = ( GEOMETRIC_REPRESENTATION_CONTEXT(2) 
PARAMETRIC_REPRESENTATION_CONTEXT() REPRESENTATION_CONTEXT('2D SPACE',''
  ) );
#465 = PCURVE('',#466,#471);
#466 = CYLINDRICAL_SURFACE('',#467,5.5);
#467 = AXIS2_PLACEMENT_3D('',#468,#469,#470);
#468 = CARTESIAN_POINT('',(12.135254915624,8.816778784387,158.));
#469 = DIRECTION('',(0.,0.,-1.));
#470 = DIRECTION('',(-1.,0.,0.));
#471 = DEFINITIONAL_REPRESENTATION('',(#472),#476);
#472 = LINE('',#473,#474);
#473 = CARTESIAN_POINT('',(0.,0.));
#474 = VECTOR('',#475,1.);
#475 = DIRECTION('',(1.,0.));
#476 = ( GEOMETRIC_REPRESENTATION_CONTEXT(2) 
PARAMETRIC_REPRESENTATION_CONTEXT() REPRESENTATION_CONTEXT('2D SPACE',''
  ) );
#477 = ADVANCED_FACE('',(#478),#129,.T.);
#478 = FACE_BOUND('',#479,.F.);
#479 = EDGE_LOOP('',(#480,#509,#532,#593,#658,#679,#680,#681,#771));
#480 = ORIENTED_EDGE('',*,*,#481,.F.);
#481 = EDGE_CURVE('',#482,#482,#484,.T.);
#482 = VERTEX_POINT('',#483);
#483 = CARTESIAN_POINT('',(25.,0.,4.));
#484 = SURFACE_CURVE('',#485,(#490,#497),.PCURVE_S1.);
#485 = CIRCLE('',#486,25.);
#486 = AXIS2_PLACEMENT_3D('',#487,#488,#489);
#487 = CARTESIAN_POINT('',(0.,0.,4.));
#488 = DIRECTION('',(0.,0.,1.));
#489 = DIRECTION('',(1.,0.,0.));
#490 = PCURVE('',#129,#491);
#491 = DEFINITIONAL_REPRESENTATION('',(#492),#496);
#492 = LINE('',#493,#494);
#493 = CARTESIAN_POINT('',(-0.,0.));
#494 = VECTOR('',#495,1.);
#495 = DIRECTION('',(-1.,0.));
#496 = ( GEOMETRIC_REPRESENTATION_CONTEXT(2) 
PARAMETRIC_REPRESENTATION_CONTEXT() REPRESENTATION_CONTEXT('2D SPACE',''
  ) );
#497 = PCURVE('',#498,#503);
#498 = PLANE('',#499);
#499 = AXIS2_PLACEMENT_3D('',#500,#501,#502);
#500 = CARTESIAN_POINT('',(-1.458602808042E-15,2.339560088947E-16,4.));
#501 = DIRECTION('',(0.,0.,1.));
#502 = DIRECTION('',(1.,0.,-0.));
#503 = DEFINITIONAL_REPRESENTATION('',(#504),#508);
#504 = CIRCLE('',#505,25.);
#505 = AXIS2_PLACEMENT_2D('',#506,#507);
#506 = CARTESIAN_POINT('',(1.458602808042E-15,-2.339560088947E-16));
#507 = DIRECTION('',(1.,0.));
#508 = ( GEOMETRIC_REPRESENTATION_CONTEXT(2) 
PARAMETRIC_REPRESENTATION_CONTEXT() REPRESENTATION_CONTEXT('2D SPACE',''
  ) );
#509 = ORIENTED_EDGE('',*,*,#510,.T.);
#510 = EDGE_CURVE('',#482,#511,#513,.T.);
#511 = VERTEX_POINT('',#512);
#512 = CARTESIAN_POINT('',(25.,0.,77.6));
#513 = SEAM_CURVE('',#514,(#518,#525),.PCURVE_S1.);
#514 = LINE('',#515,#516);
#515 = CARTESIAN_POINT('',(25.,0.,4.));
#516 = VECTOR('',#517,1.);
#517 = DIRECTION('',(0.,0.,1.));
#518 = PCURVE('',#129,#519);
#519 = DEFINITIONAL_REPRESENTATION('',(#520),#524);
#520 = LINE('',#521,#522);
#521 = CARTESIAN_POINT('',(-6.28318530718,0.));
#522 = VECTOR('',#523,1.);
#523 = DIRECTION('',(-0.,-1.));
#524 = ( GEOMETRIC_REPRESENTATION_CONTEXT(2) 
PARAMETRIC_REPRESENTATION_CONTEXT() REPRESENTATION_CONTEXT('2D SPACE',''
  ) );
#525 = PCURVE('',#129,#526);
#526 = DEFINITIONAL_REPRESENTATION('',(#527),#531);
#527 = LINE('',#528,#529);
#528 = CARTESIAN_POINT('',(-0.,0.));
#529 = VECTOR('',#530,1.);
#530 = DIRECTION('',(-0.,-1.));
#531 = ( GEOMETRIC_REPRESENTATION_CONTEXT(2) 
PARAMETRIC_REPRESENTATION_CONTEXT() REPRESENTATION_CONTEXT('2D SPACE',''
  ) );
#532 = ORIENTED_EDGE('',*,*,#533,.T.);
#533 = EDGE_CURVE('',#511,#534,#536,.T.);
#534 = VERTEX_POINT('',#535);
#535 = CARTESIAN_POINT('',(24.960769218916,1.4,79.));
#536 = SURFACE_CURVE('',#537,(#552,#570),.PCURVE_S1.);
#537 = B_SPLINE_CURVE_WITH_KNOTS('',7,(#538,#539,#540,#541,#542,#543,
    #544,#545,#546,#547,#548,#549,#550,#551),.UNSPECIFIED.,.F.,.F.,(8,6,
    8),(0.,0.457608143639,1.),.UNSPECIFIED.);
#538 = CARTESIAN_POINT('',(25.,1.73658676746E-15,77.6));
#539 = CARTESIAN_POINT('',(25.,0.167611952664,77.6));
#540 = CARTESIAN_POINT('',(24.998688935633,0.332530016153,77.6234113799)
  );
#541 = CARTESIAN_POINT('',(24.996142833594,0.490556495691,
    77.668880166043));
#542 = CARTESIAN_POINT('',(24.992631618754,0.637907563529,
    77.734031207587));
#543 = CARTESIAN_POINT('',(24.988574573666,0.771476381291,
    77.815542437971));
#544 = CARTESIAN_POINT('',(24.98438829523,0.889114794401,77.909215807078
    ));
#545 = CARTESIAN_POINT('',(24.975655967112,1.109466422015,
    78.129567434693));
#546 = CARTESIAN_POINT('',(24.971093079719,1.207745058743,
    78.261513838894));
#547 = CARTESIAN_POINT('',(24.967110290342,1.285301912543,
    78.401944607175));
#548 = CARTESIAN_POINT('',(24.963975540635,1.342835589671,
    78.548027376354));
#549 = CARTESIAN_POINT('',(24.96183796658,1.380944813105,78.697573601099
    ));
#550 = CARTESIAN_POINT('',(24.960769218916,1.4,78.848782824178));
#551 = CARTESIAN_POINT('',(24.960769218916,1.4,79.));
#552 = PCURVE('',#129,#553);
#553 = DEFINITIONAL_REPRESENTATION('',(#554),#569);
#554 = B_SPLINE_CURVE_WITH_KNOTS('',7,(#555,#556,#557,#558,#559,#560,
    #561,#562,#563,#564,#565,#566,#567,#568),.UNSPECIFIED.,.F.,.F.,(8,6,
    8),(0.,0.457608143639,1.),.UNSPECIFIED.);
#555 = CARTESIAN_POINT('',(0.,-73.6));
#556 = CARTESIAN_POINT('',(-6.704478106544E-03,-73.6));
#557 = CARTESIAN_POINT('',(-1.330120121147E-02,-73.6234113799));
#558 = CARTESIAN_POINT('',(-1.96227495098E-02,-73.66888016604));
#559 = CARTESIAN_POINT('',(-2.551820677627E-02,-73.73403120758));
#560 = CARTESIAN_POINT('',(-3.086330531022E-02,-73.81554243797));
#561 = CARTESIAN_POINT('',(-3.557178145688E-02,-73.90921580707));
#562 = CARTESIAN_POINT('',(-4.439276492556E-02,-74.12956743469));
#563 = CARTESIAN_POINT('',(-4.832805438569E-02,-74.26151383889));
#564 = CARTESIAN_POINT('',(-5.143438288923E-02,-74.40194460717));
#565 = CARTESIAN_POINT('',(-5.373914030625E-02,-74.54802737635));
#566 = CARTESIAN_POINT('',(-5.526590531771E-02,-74.69757360109));
#567 = CARTESIAN_POINT('',(-5.602931071548E-02,-74.84878282417));
#568 = CARTESIAN_POINT('',(-5.602931071548E-02,-75.));
#569 = ( GEOMETRIC_REPRESENTATION_CONTEXT(2) 
PARAMETRIC_REPRESENTATION_CONTEXT() REPRESENTATION_CONTEXT('2D SPACE',''
  ) );
#570 = PCURVE('',#571,#576);
#571 = CYLINDRICAL_SURFACE('',#572,1.4);
#572 = AXIS2_PLACEMENT_3D('',#573,#574,#575);
#573 = CARTESIAN_POINT('',(0.,0.,79.));
#574 = DIRECTION('',(-1.,-0.,-0.));
#575 = DIRECTION('',(0.,1.,0.));
#576 = DEFINITIONAL_REPRESENTATION('',(#577),#592);
#577 = B_SPLINE_CURVE_WITH_KNOTS('',7,(#578,#579,#580,#581,#582,#583,
    #584,#585,#586,#587,#588,#589,#590,#591),.UNSPECIFIED.,.F.,.F.,(8,6,
    8),(0.,0.457608143639,1.),.UNSPECIFIED.);
#578 = CARTESIAN_POINT('',(-4.712388980385,-25.));
#579 = CARTESIAN_POINT('',(-4.832111803716,-25.));
#580 = CARTESIAN_POINT('',(-4.949910323835,-24.99868893563));
#581 = CARTESIAN_POINT('',(-5.065589731873,-24.99614283359));
#582 = CARTESIAN_POINT('',(-5.178842693227,-24.99263161875));
#583 = CARTESIAN_POINT('',(-5.289200060497,-24.98857457366));
#584 = CARTESIAN_POINT('',(-5.395928715745,-24.98438829523));
#585 = CARTESIAN_POINT('',(-5.618517473076,-24.97565596711));
#586 = CARTESIAN_POINT('',(-5.734798878937,-24.97109307971));
#587 = CARTESIAN_POINT('',(-5.847772177704,-24.96711029034));
#588 = CARTESIAN_POINT('',(-5.958288648712,-24.96397554063));
#589 = CARTESIAN_POINT('',(-6.067166683949,-24.96183796658));
#590 = CARTESIAN_POINT('',(-6.175173038736,-24.96076921891));
#591 = CARTESIAN_POINT('',(-6.28318530718,-24.96076921891));
#592 = ( GEOMETRIC_REPRESENTATION_CONTEXT(2) 
PARAMETRIC_REPRESENTATION_CONTEXT() REPRESENTATION_CONTEXT('2D SPACE',''
  ) );
#593 = ORIENTED_EDGE('',*,*,#594,.T.);
#594 = EDGE_CURVE('',#534,#595,#597,.T.);
#595 = VERTEX_POINT('',#596);
#596 = CARTESIAN_POINT('',(25.,0.,80.4));
#597 = SURFACE_CURVE('',#598,(#616,#637),.PCURVE_S1.);
#598 = B_SPLINE_CURVE_WITH_KNOTS('',6,(#599,#600,#601,#602,#603,#604,
    #605,#606,#607,#608,#609,#610,#611,#612,#613,#614,#615),
  .UNSPECIFIED.,.F.,.F.,(7,5,5,7),(0.,0.459035166972,0.77046505109,1.),
  .UNSPECIFIED.);
#599 = CARTESIAN_POINT('',(24.960769218916,1.4,79.));
#600 = CARTESIAN_POINT('',(24.960769218916,1.4,79.149781417366));
#601 = CARTESIAN_POINT('',(24.961847873097,1.380770091052,
    79.299554530962));
#602 = CARTESIAN_POINT('',(24.964004255509,1.342316199164,
    79.447508492779));
#603 = CARTESIAN_POINT('',(24.967153065905,1.284208300937,
    79.591725298201));
#604 = CARTESIAN_POINT('',(24.971105160093,1.205750122407,
    79.729752569238));
#605 = CARTESIAN_POINT('',(24.978504627194,1.038689329663,
    79.945126045479));
#606 = CARTESIAN_POINT('',(24.981713366983,0.961288232579,
    80.027934880875));
#607 = CARTESIAN_POINT('',(24.985020707515,0.873988597521,
    80.104972295833));
#608 = CARTESIAN_POINT('',(24.988268045145,0.776990695159,
    80.174631326252));
#609 = CARTESIAN_POINT('',(24.991263982272,0.670742325447,
    80.235206087296));
#610 = CARTESIAN_POINT('',(24.995697550999,0.471443048233,
    80.321450585919));
#611 = CARTESIAN_POINT('',(24.997338063383,0.382269333083,
    80.352110034257));
#612 = CARTESIAN_POINT('',(24.998646157882,0.289401072725,
    80.375834003179));
#613 = CARTESIAN_POINT('',(24.999548076958,0.193932884588,
    80.391925105952));
#614 = CARTESIAN_POINT('',(25.,9.706009467884E-02,80.4));
#615 = CARTESIAN_POINT('',(25.,8.360380836409E-16,80.4));
#616 = PCURVE('',#129,#617);
#617 = DEFINITIONAL_REPRESENTATION('',(#618),#636);
#618 = B_SPLINE_CURVE_WITH_KNOTS('',6,(#619,#620,#621,#622,#623,#624,
    #625,#626,#627,#628,#629,#630,#631,#632,#633,#634,#635),
  .UNSPECIFIED.,.F.,.F.,(7,5,5,7),(0.,0.459035166972,0.77046505109,1.),
  .UNSPECIFIED.);
#619 = CARTESIAN_POINT('',(-5.602931071548E-02,-75.));
#620 = CARTESIAN_POINT('',(-5.602931071548E-02,-75.14978141736));
#621 = CARTESIAN_POINT('',(-5.525890495821E-02,-75.29955453096));
#622 = CARTESIAN_POINT('',(-5.371833393791E-02,-75.44750849277));
#623 = CARTESIAN_POINT('',(-5.139060901403E-02,-75.5917252982));
#624 = CARTESIAN_POINT('',(-4.824836039391E-02,-75.72975256923));
#625 = CARTESIAN_POINT('',(-4.155937714255E-02,-75.94512604547));
#626 = CARTESIAN_POINT('',(-3.846068654933E-02,-76.02793488087));
#627 = CARTESIAN_POINT('',(-3.496623121439E-02,-76.10497229583));
#628 = CARTESIAN_POINT('',(-3.108421096918E-02,-76.17463132625));
#629 = CARTESIAN_POINT('',(-2.683266233015E-02,-76.23520608729));
#630 = CARTESIAN_POINT('',(-1.88587189213E-02,-76.32145058591));
#631 = CARTESIAN_POINT('',(-1.529119251555E-02,-76.35211003425));
#632 = CARTESIAN_POINT('',(-1.157614939522E-02,-76.37583400317));
#633 = CARTESIAN_POINT('',(-7.757314712386E-03,-76.39192510595));
#634 = CARTESIAN_POINT('',(-3.882403787153E-03,-76.4));
#635 = CARTESIAN_POINT('',(0.,-76.4));
#636 = ( GEOMETRIC_REPRESENTATION_CONTEXT(2) 
PARAMETRIC_REPRESENTATION_CONTEXT() REPRESENTATION_CONTEXT('2D SPACE',''
  ) );
#637 = PCURVE('',#571,#638);
#638 = DEFINITIONAL_REPRESENTATION('',(#639),#657);
#639 = B_SPLINE_CURVE_WITH_KNOTS('',6,(#640,#641,#642,#643,#644,#645,
    #646,#647,#648,#649,#650,#651,#652,#653,#654,#655,#656),
  .UNSPECIFIED.,.F.,.F.,(7,5,5,7),(0.,0.459035166972,0.77046505109,1.),
  .UNSPECIFIED.);
#640 = CARTESIAN_POINT('',(0.,-24.96076921891));
#641 = CARTESIAN_POINT('',(-0.10698672669,-24.96076921891));
#642 = CARTESIAN_POINT('',(-0.213968742186,-24.96184787309));
#643 = CARTESIAN_POINT('',(-0.321848723027,-24.9640042555));
#644 = CARTESIAN_POINT('',(-0.431486406543,-24.9671530659));
#645 = CARTESIAN_POINT('',(-0.543737953976,-24.97110516009));
#646 = CARTESIAN_POINT('',(-0.738431646866,-24.97850462719));
#647 = CARTESIAN_POINT('',(-0.819054252248,-24.98171336698));
#648 = CARTESIAN_POINT('',(-0.901629682432,-24.98502070751));
#649 = CARTESIAN_POINT('',(-0.986257424607,-24.98826804514));
#650 = CARTESIAN_POINT('',(-1.073091153434,-24.99126398227));
#651 = CARTESIAN_POINT('',(-1.228205192195,-24.99569755099));
#652 = CARTESIAN_POINT('',(-1.295359331291,-24.99733806338));
#653 = CARTESIAN_POINT('',(-1.363481509028,-24.99864615788));
#654 = CARTESIAN_POINT('',(-1.432272792145,-24.99954807695));
#655 = CARTESIAN_POINT('',(-1.501467687739,-25.));
#656 = CARTESIAN_POINT('',(-1.570796326795,-25.));
#657 = ( GEOMETRIC_REPRESENTATION_CONTEXT(2) 
PARAMETRIC_REPRESENTATION_CONTEXT() REPRESENTATION_CONTEXT('2D SPACE',''
  ) );
#658 = ORIENTED_EDGE('',*,*,#659,.T.);
#659 = EDGE_CURVE('',#595,#113,#660,.T.);
#660 = SEAM_CURVE('',#661,(#665,#672),.PCURVE_S1.);
#661 = LINE('',#662,#663);
#662 = CARTESIAN_POINT('',(25.,0.,4.));
#663 = VECTOR('',#664,1.);
#664 = DIRECTION('',(0.,0.,1.));
#665 = PCURVE('',#129,#666);
#666 = DEFINITIONAL_REPRESENTATION('',(#667),#671);
#667 = LINE('',#668,#669);
#668 = CARTESIAN_POINT('',(-6.28318530718,0.));
#669 = VECTOR('',#670,1.);
#670 = DIRECTION('',(-0.,-1.));
#671 = ( GEOMETRIC_REPRESENTATION_CONTEXT(2) 
PARAMETRIC_REPRESENTATION_CONTEXT() REPRESENTATION_CONTEXT('2D SPACE',''
  ) );
#672 = PCURVE('',#129,#673);
#673 = DEFINITIONAL_REPRESENTATION('',(#674),#678);
#674 = LINE('',#675,#676);
#675 = CARTESIAN_POINT('',(-0.,0.));
#676 = VECTOR('',#677,1.);
#677 = DIRECTION('',(-0.,-1.));
#678 = ( GEOMETRIC_REPRESENTATION_CONTEXT(2) 
PARAMETRIC_REPRESENTATION_CONTEXT() REPRESENTATION_CONTEXT('2D SPACE',''
  ) );
#679 = ORIENTED_EDGE('',*,*,#112,.T.);
#680 = ORIENTED_EDGE('',*,*,#659,.F.);
#681 = ORIENTED_EDGE('',*,*,#682,.T.);
#682 = EDGE_CURVE('',#595,#511,#683,.T.);
#683 = SURFACE_CURVE('',#684,(#711,#741),.PCURVE_S1.);
#684 = B_SPLINE_CURVE_WITH_KNOTS('',7,(#685,#686,#687,#688,#689,#690,
    #691,#692,#693,#694,#695,#696,#697,#698,#699,#700,#701,#702,#703,
    #704,#705,#706,#707,#708,#709,#710),.UNSPECIFIED.,.F.,.F.,(8,6,6,6,8
    ),(0.,0.269159359841,0.499994451825,0.730836533331,1.),
  .UNSPECIFIED.);
#685 = CARTESIAN_POINT('',(25.,-2.22044604925E-15,80.4));
#686 = CARTESIAN_POINT('',(25.,-0.198265625436,80.4));
#687 = CARTESIAN_POINT('',(24.998165542523,-0.39155066007,
    80.367242545612));
#688 = CARTESIAN_POINT('',(24.994662724746,-0.573603955631,
    80.304688202157));
#689 = CARTESIAN_POINT('',(24.989996560917,-0.739199256926,
    80.216562503055));
#690 = CARTESIAN_POINT('',(24.9848772776,-0.884354366243,80.108278091674
    ));
#691 = CARTESIAN_POINT('',(24.979919720175,-1.006740197116,
    79.986314618972));
#692 = CARTESIAN_POINT('',(24.971735006357,-1.191529825906,
    79.748085265021));
#693 = CARTESIAN_POINT('',(24.968282292659,-1.261790616596,
    79.631163848414));
#694 = CARTESIAN_POINT('',(24.965353753196,-1.31741276762,
    79.509316809561));
#695 = CARTESIAN_POINT('',(24.963080047372,-1.358797268393,
    79.384098538068));
#696 = CARTESIAN_POINT('',(24.961539637981,-1.386265176741,
    79.256758839418));
#697 = CARTESIAN_POINT('',(24.960769218916,-1.4,79.128380184768));
#698 = CARTESIAN_POINT('',(24.960769218916,-1.4,78.871615927972));
#699 = CARTESIAN_POINT('',(24.961539686188,-1.386264350751,
    78.743237787208));
#700 = CARTESIAN_POINT('',(24.963080091618,-1.358796438544,78.615900348)
  );
#701 = CARTESIAN_POINT('',(24.965353745678,-1.31741281421,
    78.490684304897));
#702 = CARTESIAN_POINT('',(24.968282235673,-1.2617916785,78.368838338646
    ));
#703 = CARTESIAN_POINT('',(24.971734949597,-1.191531107396,
    78.251916387066));
#704 = CARTESIAN_POINT('',(24.979919720175,-1.006740197116,
    78.013685381028));
#705 = CARTESIAN_POINT('',(24.9848772776,-0.884354366243,77.891721908326
    ));
#706 = CARTESIAN_POINT('',(24.989996560917,-0.739199256926,
    77.783437496945));
#707 = CARTESIAN_POINT('',(24.994662724746,-0.573603955631,
    77.695311797843));
#708 = CARTESIAN_POINT('',(24.998165542523,-0.39155066007,
    77.632757454388));
#709 = CARTESIAN_POINT('',(25.,-0.198265625436,77.6));
#710 = CARTESIAN_POINT('',(25.,-1.33226762955E-15,77.6));
#711 = PCURVE('',#129,#712);
#712 = DEFINITIONAL_REPRESENTATION('',(#713),#740);
#713 = B_SPLINE_CURVE_WITH_KNOTS('',7,(#714,#715,#716,#717,#718,#719,
    #720,#721,#722,#723,#724,#725,#726,#727,#728,#729,#730,#731,#732,
    #733,#734,#735,#736,#737,#738,#739),.UNSPECIFIED.,.F.,.F.,(8,6,6,6,8
    ),(0.,0.269159359841,0.499994451825,0.730836533331,1.),
  .UNSPECIFIED.);
#714 = CARTESIAN_POINT('',(-6.28318530718,-76.4));
#715 = CARTESIAN_POINT('',(-6.275254682162,-76.4));
#716 = CARTESIAN_POINT('',(-6.267523279545,-76.36724254561));
#717 = CARTESIAN_POINT('',(-6.260240339952,-76.30468820215));
#718 = CARTESIAN_POINT('',(-6.253614247122,-76.21656250305));
#719 = CARTESIAN_POINT('',(-6.247804560237,-76.10827809167));
#720 = CARTESIAN_POINT('',(-6.242905148272,-75.98631461897));
#721 = CARTESIAN_POINT('',(-6.235506316316,-75.74808526502));
#722 = CARTESIAN_POINT('',(-6.232692526019,-75.63116384841));
#723 = CARTESIAN_POINT('',(-6.230464571517,-75.50931680956));
#724 = CARTESIAN_POINT('',(-6.228806695281,-75.38409853806));
#725 = CARTESIAN_POINT('',(-6.227706253191,-75.25675883941));
#726 = CARTESIAN_POINT('',(-6.227155996464,-75.12838018476));
#727 = CARTESIAN_POINT('',(-6.227155996464,-74.87161592797));
#728 = CARTESIAN_POINT('',(-6.227706286291,-74.7432377872));
#729 = CARTESIAN_POINT('',(-6.228806728519,-74.615900348));
#730 = CARTESIAN_POINT('',(-6.230464569638,-74.49068430489));
#731 = CARTESIAN_POINT('',(-6.232692483486,-74.36883833864));
#732 = CARTESIAN_POINT('',(-6.235506265006,-74.25191638706));
#733 = CARTESIAN_POINT('',(-6.242905148272,-74.01368538102));
#734 = CARTESIAN_POINT('',(-6.247804560237,-73.89172190832));
#735 = CARTESIAN_POINT('',(-6.253614247122,-73.78343749694));
#736 = CARTESIAN_POINT('',(-6.260240339952,-73.69531179784));
#737 = CARTESIAN_POINT('',(-6.267523279545,-73.63275745438));
#738 = CARTESIAN_POINT('',(-6.275254682162,-73.6));
#739 = CARTESIAN_POINT('',(-6.28318530718,-73.6));
#740 = ( GEOMETRIC_REPRESENTATION_CONTEXT(2) 
PARAMETRIC_REPRESENTATION_CONTEXT() REPRESENTATION_CONTEXT('2D SPACE',''
  ) );
#741 = PCURVE('',#571,#742);
#742 = DEFINITIONAL_REPRESENTATION('',(#743),#770);
#743 = B_SPLINE_CURVE_WITH_KNOTS('',7,(#744,#745,#746,#747,#748,#749,
    #750,#751,#752,#753,#754,#755,#756,#757,#758,#759,#760,#761,#762,
    #763,#764,#765,#766,#767,#768,#769),.UNSPECIFIED.,.F.,.F.,(8,6,6,6,8
    ),(0.,0.269159359841,0.499994451825,0.730836533331,1.),
  .UNSPECIFIED.);
#744 = CARTESIAN_POINT('',(-1.570796326795,-25.));
#745 = CARTESIAN_POINT('',(-1.712414630678,-25.));
#746 = CARTESIAN_POINT('',(-1.850475352846,-24.99816554252));
#747 = CARTESIAN_POINT('',(-1.985152386572,-24.99466272474));
#748 = CARTESIAN_POINT('',(-2.116304691217,-24.98999656091));
#749 = CARTESIAN_POINT('',(-2.243512132013,-24.9848772776));
#750 = CARTESIAN_POINT('',(-2.365927287799,-24.97991972017));
#751 = CARTESIAN_POINT('',(-2.581282277118,-24.97173500635));
#752 = CARTESIAN_POINT('',(-2.678032682609,-24.96828229265));
#753 = CARTESIAN_POINT('',(-2.772755626878,-24.96535375319));
#754 = CARTESIAN_POINT('',(-2.865979102558,-24.96308004737));
#755 = CARTESIAN_POINT('',(-2.958192630373,-24.96153963798));
#756 = CARTESIAN_POINT('',(-3.049892521613,-24.96076921891));
#757 = CARTESIAN_POINT('',(-3.233295562181,-24.96076921891));
#758 = CARTESIAN_POINT('',(-3.324995105634,-24.96153968618));
#759 = CARTESIAN_POINT('',(-3.417207099113,-24.96308009161));
#760 = CARTESIAN_POINT('',(-3.510428955266,-24.96535374567));
#761 = CARTESIAN_POINT('',(-3.605150930828,-24.96828223567));
#762 = CARTESIAN_POINT('',(-3.701901536605,-24.97173494959));
#763 = CARTESIAN_POINT('',(-3.917258019381,-24.97991972017));
#764 = CARTESIAN_POINT('',(-4.039673175167,-24.9848772776));
#765 = CARTESIAN_POINT('',(-4.166880615963,-24.98999656091));
#766 = CARTESIAN_POINT('',(-4.298032920608,-24.99466272474));
#767 = CARTESIAN_POINT('',(-4.432709954334,-24.99816554252));
#768 = CARTESIAN_POINT('',(-4.570770676502,-25.));
#769 = CARTESIAN_POINT('',(-4.712388980385,-25.));
#770 = ( GEOMETRIC_REPRESENTATION_CONTEXT(2) 
PARAMETRIC_REPRESENTATION_CONTEXT() REPRESENTATION_CONTEXT('2D SPACE',''
  ) );
#771 = ORIENTED_EDGE('',*,*,#510,.F.);
#772 = ADVANCED_FACE('',(#773),#168,.F.);
#773 = FACE_BOUND('',#774,.F.);
#774 = EDGE_LOOP('',(#775,#808,#829,#830));
#775 = ORIENTED_EDGE('',*,*,#776,.F.);
#776 = EDGE_CURVE('',#777,#777,#779,.T.);
#777 = VERTEX_POINT('',#778);
#778 = CARTESIAN_POINT('',(-10.13525491562,-14.26584774442,0.));
#779 = SURFACE_CURVE('',#780,(#785,#792),.PCURVE_S1.);
#780 = CIRCLE('',#781,5.5);
#781 = AXIS2_PLACEMENT_3D('',#782,#783,#784);
#782 = CARTESIAN_POINT('',(-4.635254915624,-14.26584774442,0.));
#783 = DIRECTION('',(0.,0.,-1.));
#784 = DIRECTION('',(-1.,0.,0.));
#785 = PCURVE('',#168,#786);
#786 = DEFINITIONAL_REPRESENTATION('',(#787),#791);
#787 = LINE('',#788,#789);
#788 = CARTESIAN_POINT('',(0.,158.));
#789 = VECTOR('',#790,1.);
#790 = DIRECTION('',(1.,0.));
#791 = ( GEOMETRIC_REPRESENTATION_CONTEXT(2) 
PARAMETRIC_REPRESENTATION_CONTEXT() REPRESENTATION_CONTEXT('2D SPACE',''
  ) );
#792 = PCURVE('',#793,#798);
#793 = PLANE('',#794);
#794 = AXIS2_PLACEMENT_3D('',#795,#796,#797);
#795 = CARTESIAN_POINT('',(-1.458602808042E-15,2.339560088947E-16,0.));
#796 = DIRECTION('',(0.,0.,1.));
#797 = DIRECTION('',(1.,0.,-0.));
#798 = DEFINITIONAL_REPRESENTATION('',(#799),#807);
#799 = ( BOUNDED_CURVE() B_SPLINE_CURVE(2,(#800,#801,#802,#803,#804,#805
,#806),.UNSPECIFIED.,.T.,.F.) B_SPLINE_CURVE_WITH_KNOTS((1,2,2,2,2,1),(
    -2.094395102393,0.,2.094395102393,4.188790204786,6.28318530718,
8.377580409573),.UNSPECIFIED.) CURVE() GEOMETRIC_REPRESENTATION_ITEM() 
RATIONAL_B_SPLINE_CURVE((1.,0.5,1.,0.5,1.,0.5,1.)) REPRESENTATION_ITEM(
  '') );
#800 = CARTESIAN_POINT('',(-10.13525491562,-14.26584774442));
#801 = CARTESIAN_POINT('',(-10.13525491562,-4.739568302798));
#802 = CARTESIAN_POINT('',(-1.885254915624,-9.502708023613));
#803 = CARTESIAN_POINT('',(6.364745084376,-14.26584774442));
#804 = CARTESIAN_POINT('',(-1.885254915624,-19.02898746524));
#805 = CARTESIAN_POINT('',(-10.13525491562,-23.79212718605));
#806 = CARTESIAN_POINT('',(-10.13525491562,-14.26584774442));
#807 = ( GEOMETRIC_REPRESENTATION_CONTEXT(2) 
PARAMETRIC_REPRESENTATION_CONTEXT() REPRESENTATION_CONTEXT('2D SPACE',''
  ) );
#808 = ORIENTED_EDGE('',*,*,#809,.F.);
#809 = EDGE_CURVE('',#148,#777,#810,.T.);
#810 = SEAM_CURVE('',#811,(#815,#822),.PCURVE_S1.);
#811 = LINE('',#812,#813);
#812 = CARTESIAN_POINT('',(-10.13525491562,-14.26584774442,158.));
#813 = VECTOR('',#814,1.);
#814 = DIRECTION('',(0.,0.,-1.));
#815 = PCURVE('',#168,#816);
#816 = DEFINITIONAL_REPRESENTATION('',(#817),#821);
#817 = LINE('',#818,#819);
#818 = CARTESIAN_POINT('',(6.28318530718,-0.));
#819 = VECTOR('',#820,1.);
#820 = DIRECTION('',(0.,1.));
#821 = ( GEOMETRIC_REPRESENTATION_CONTEXT(2) 
PARAMETRIC_REPRESENTATION_CONTEXT() REPRESENTATION_CONTEXT('2D SPACE',''
  ) );
#822 = PCURVE('',#168,#823);
#823 = DEFINITIONAL_REPRESENTATION('',(#824),#828);
#824 = LINE('',#825,#826);
#825 = CARTESIAN_POINT('',(0.,-0.));
#826 = VECTOR('',#827,1.);
#827 = DIRECTION('',(0.,1.));
#828 = ( GEOMETRIC_REPRESENTATION_CONTEXT(2) 
PARAMETRIC_REPRESENTATION_CONTEXT() REPRESENTATION_CONTEXT('2D SPACE',''
  ) );
#829 = ORIENTED_EDGE('',*,*,#147,.T.);
#830 = ORIENTED_EDGE('',*,*,#809,.T.);
#831 = ADVANCED_FACE('',(#832),#199,.T.);
#832 = FACE_BOUND('',#833,.T.);
#833 = EDGE_LOOP('',(#834,#859,#880,#881));
#834 = ORIENTED_EDGE('',*,*,#835,.F.);
#835 = EDGE_CURVE('',#836,#838,#840,.T.);
#836 = VERTEX_POINT('',#837);
#837 = CARTESIAN_POINT('',(3.767210506462,6.525,-1.999999881264E-07));
#838 = VERTEX_POINT('',#839);
#839 = CARTESIAN_POINT('',(-3.767210506462,6.525,-1.999999881264E-07));
#840 = SURFACE_CURVE('',#841,(#845,#852),.PCURVE_S1.);
#841 = LINE('',#842,#843);
#842 = CARTESIAN_POINT('',(3.767210506462,6.525,-1.999999881264E-07));
#843 = VECTOR('',#844,1.);
#844 = DIRECTION('',(-1.,1.178827700465E-16,0.));
#845 = PCURVE('',#199,#846);
#846 = DEFINITIONAL_REPRESENTATION('',(#847),#851);
#847 = LINE('',#848,#849);
#848 = CARTESIAN_POINT('',(0.,0.));
#849 = VECTOR('',#850,1.);
#850 = DIRECTION('',(1.,0.));
#851 = ( GEOMETRIC_REPRESENTATION_CONTEXT(2) 
PARAMETRIC_REPRESENTATION_CONTEXT() REPRESENTATION_CONTEXT('2D SPACE',''
  ) );
#852 = PCURVE('',#793,#853);
#853 = DEFINITIONAL_REPRESENTATION('',(#854),#858);
#854 = LINE('',#855,#856);
#855 = CARTESIAN_POINT('',(3.767210506462,6.525));
#856 = VECTOR('',#857,1.);
#857 = DIRECTION('',(-1.,1.178827700465E-16));
#858 = ( GEOMETRIC_REPRESENTATION_CONTEXT(2) 
PARAMETRIC_REPRESENTATION_CONTEXT() REPRESENTATION_CONTEXT('2D SPACE',''
  ) );
#859 = ORIENTED_EDGE('',*,*,#860,.T.);
#860 = EDGE_CURVE('',#836,#185,#861,.T.);
#861 = SURFACE_CURVE('',#862,(#866,#873),.PCURVE_S1.);
#862 = LINE('',#863,#864);
#863 = CARTESIAN_POINT('',(3.767210506462,6.525,-1.999999881264E-07));
#864 = VECTOR('',#865,1.);
#865 = DIRECTION('',(0.,0.,1.));
#866 = PCURVE('',#199,#867);
#867 = DEFINITIONAL_REPRESENTATION('',(#868),#872);
#868 = LINE('',#869,#870);
#869 = CARTESIAN_POINT('',(0.,0.));
#870 = VECTOR('',#871,1.);
#871 = DIRECTION('',(0.,-1.));
#872 = ( GEOMETRIC_REPRESENTATION_CONTEXT(2) 
PARAMETRIC_REPRESENTATION_CONTEXT() REPRESENTATION_CONTEXT('2D SPACE',''
  ) );
#873 = PCURVE('',#225,#874);
#874 = DEFINITIONAL_REPRESENTATION('',(#875),#879);
#875 = LINE('',#876,#877);
#876 = CARTESIAN_POINT('',(7.534421012925,0.));
#877 = VECTOR('',#878,1.);
#878 = DIRECTION('',(0.,-1.));
#879 = ( GEOMETRIC_REPRESENTATION_CONTEXT(2) 
PARAMETRIC_REPRESENTATION_CONTEXT() REPRESENTATION_CONTEXT('2D SPACE',''
  ) );
#880 = ORIENTED_EDGE('',*,*,#182,.F.);
#881 = ORIENTED_EDGE('',*,*,#882,.F.);
#882 = EDGE_CURVE('',#838,#183,#883,.T.);
#883 = SURFACE_CURVE('',#884,(#888,#895),.PCURVE_S1.);
#884 = LINE('',#885,#886);
#885 = CARTESIAN_POINT('',(-3.767210506462,6.525,-1.999999881264E-07));
#886 = VECTOR('',#887,1.);
#887 = DIRECTION('',(0.,0.,1.));
#888 = PCURVE('',#199,#889);
#889 = DEFINITIONAL_REPRESENTATION('',(#890),#894);
#890 = LINE('',#891,#892);
#891 = CARTESIAN_POINT('',(7.534421012925,0.));
#892 = VECTOR('',#893,1.);
#893 = DIRECTION('',(0.,-1.));
#894 = ( GEOMETRIC_REPRESENTATION_CONTEXT(2) 
PARAMETRIC_REPRESENTATION_CONTEXT() REPRESENTATION_CONTEXT('2D SPACE',''
  ) );
#895 = PCURVE('',#327,#896);
#896 = DEFINITIONAL_REPRESENTATION('',(#897),#901);
#897 = LINE('',#898,#899);
#898 = CARTESIAN_POINT('',(0.,0.));
#899 = VECTOR('',#900,1.);
#900 = DIRECTION('',(0.,-1.));
#901 = ( GEOMETRIC_REPRESENTATION_CONTEXT(2) 
PARAMETRIC_REPRESENTATION_CONTEXT() REPRESENTATION_CONTEXT('2D SPACE',''
  ) );
#902 = ADVANCED_FACE('',(#903),#327,.T.);
#903 = FACE_BOUND('',#904,.T.);
#904 = EDGE_LOOP('',(#905,#928,#929,#930));
#905 = ORIENTED_EDGE('',*,*,#906,.F.);
#906 = EDGE_CURVE('',#838,#907,#909,.T.);
#907 = VERTEX_POINT('',#908);
#908 = CARTESIAN_POINT('',(-7.534421012925,9.227004576907E-16,
    -1.999999881264E-07));
#909 = SURFACE_CURVE('',#910,(#914,#921),.PCURVE_S1.);
#910 = LINE('',#911,#912);
#911 = CARTESIAN_POINT('',(-3.767210506462,6.525,-1.999999881264E-07));
#912 = VECTOR('',#913,1.);
#913 = DIRECTION('',(-0.5,-0.866025403784,0.));
#914 = PCURVE('',#327,#915);
#915 = DEFINITIONAL_REPRESENTATION('',(#916),#920);
#916 = LINE('',#917,#918);
#917 = CARTESIAN_POINT('',(0.,0.));
#918 = VECTOR('',#919,1.);
#919 = DIRECTION('',(1.,0.));
#920 = ( GEOMETRIC_REPRESENTATION_CONTEXT(2) 
PARAMETRIC_REPRESENTATION_CONTEXT() REPRESENTATION_CONTEXT('2D SPACE',''
  ) );
#921 = PCURVE('',#793,#922);
#922 = DEFINITIONAL_REPRESENTATION('',(#923),#927);
#923 = LINE('',#924,#925);
#924 = CARTESIAN_POINT('',(-3.767210506462,6.525));
#925 = VECTOR('',#926,1.);
#926 = DIRECTION('',(-0.5,-0.866025403784));
#927 = ( GEOMETRIC_REPRESENTATION_CONTEXT(2) 
PARAMETRIC_REPRESENTATION_CONTEXT() REPRESENTATION_CONTEXT('2D SPACE',''
  ) );
#928 = ORIENTED_EDGE('',*,*,#882,.T.);
#929 = ORIENTED_EDGE('',*,*,#314,.F.);
#930 = ORIENTED_EDGE('',*,*,#931,.F.);
#931 = EDGE_CURVE('',#907,#289,#932,.T.);
#932 = SURFACE_CURVE('',#933,(#937,#944),.PCURVE_S1.);
#933 = LINE('',#934,#935);
#934 = CARTESIAN_POINT('',(-7.534421012925,9.227004576907E-16,
    -1.999999881264E-07));
#935 = VECTOR('',#936,1.);
#936 = DIRECTION('',(0.,0.,1.));
#937 = PCURVE('',#327,#938);
#938 = DEFINITIONAL_REPRESENTATION('',(#939),#943);
#939 = LINE('',#940,#941);
#940 = CARTESIAN_POINT('',(7.534421012925,0.));
#941 = VECTOR('',#942,1.);
#942 = DIRECTION('',(0.,-1.));
#943 = ( GEOMETRIC_REPRESENTATION_CONTEXT(2) 
PARAMETRIC_REPRESENTATION_CONTEXT() REPRESENTATION_CONTEXT('2D SPACE',''
  ) );
#944 = PCURVE('',#303,#945);
#945 = DEFINITIONAL_REPRESENTATION('',(#946),#950);
#946 = LINE('',#947,#948);
#947 = CARTESIAN_POINT('',(0.,0.));
#948 = VECTOR('',#949,1.);
#949 = DIRECTION('',(0.,-1.));
#950 = ( GEOMETRIC_REPRESENTATION_CONTEXT(2) 
PARAMETRIC_REPRESENTATION_CONTEXT() REPRESENTATION_CONTEXT('2D SPACE',''
  ) );
#951 = ADVANCED_FACE('',(#952),#303,.T.);
#952 = FACE_BOUND('',#953,.T.);
#953 = EDGE_LOOP('',(#954,#977,#978,#979));
#954 = ORIENTED_EDGE('',*,*,#955,.F.);
#955 = EDGE_CURVE('',#907,#956,#958,.T.);
#956 = VERTEX_POINT('',#957);
#957 = CARTESIAN_POINT('',(-3.767210506462,-6.525,-1.999999881264E-07));
#958 = SURFACE_CURVE('',#959,(#963,#970),.PCURVE_S1.);
#959 = LINE('',#960,#961);
#960 = CARTESIAN_POINT('',(-7.534421012925,9.227004576907E-16,
    -1.999999881264E-07));
#961 = VECTOR('',#962,1.);
#962 = DIRECTION('',(0.5,-0.866025403784,0.));
#963 = PCURVE('',#303,#964);
#964 = DEFINITIONAL_REPRESENTATION('',(#965),#969);
#965 = LINE('',#966,#967);
#966 = CARTESIAN_POINT('',(0.,0.));
#967 = VECTOR('',#968,1.);
#968 = DIRECTION('',(1.,0.));
#969 = ( GEOMETRIC_REPRESENTATION_CONTEXT(2) 
PARAMETRIC_REPRESENTATION_CONTEXT() REPRESENTATION_CONTEXT('2D SPACE',''
  ) );
#970 = PCURVE('',#793,#971);
#971 = DEFINITIONAL_REPRESENTATION('',(#972),#976);
#972 = LINE('',#973,#974);
#973 = CARTESIAN_POINT('',(-7.534421012925,6.88744448796E-16));
#974 = VECTOR('',#975,1.);
#975 = DIRECTION('',(0.5,-0.866025403784));
#976 = ( GEOMETRIC_REPRESENTATION_CONTEXT(2) 
PARAMETRIC_REPRESENTATION_CONTEXT() REPRESENTATION_CONTEXT('2D SPACE',''
  ) );
#977 = ORIENTED_EDGE('',*,*,#931,.T.);
#978 = ORIENTED_EDGE('',*,*,#288,.F.);
#979 = ORIENTED_EDGE('',*,*,#980,.F.);
#980 = EDGE_CURVE('',#956,#263,#981,.T.);
#981 = SURFACE_CURVE('',#982,(#986,#993),.PCURVE_S1.);
#982 = LINE('',#983,#984);
#983 = CARTESIAN_POINT('',(-3.767210506462,-6.525,-1.999999881264E-07));
#984 = VECTOR('',#985,1.);
#985 = DIRECTION('',(0.,0.,1.));
#986 = PCURVE('',#303,#987);
#987 = DEFINITIONAL_REPRESENTATION('',(#988),#992);
#988 = LINE('',#989,#990);
#989 = CARTESIAN_POINT('',(7.534421012925,0.));
#990 = VECTOR('',#991,1.);
#991 = DIRECTION('',(0.,-1.));
#992 = ( GEOMETRIC_REPRESENTATION_CONTEXT(2) 
PARAMETRIC_REPRESENTATION_CONTEXT() REPRESENTATION_CONTEXT('2D SPACE',''
  ) );
#993 = PCURVE('',#277,#994);
#994 = DEFINITIONAL_REPRESENTATION('',(#995),#999);
#995 = LINE('',#996,#997);
#996 = CARTESIAN_POINT('',(0.,0.));
#997 = VECTOR('',#998,1.);
#998 = DIRECTION('',(0.,-1.));
#999 = ( GEOMETRIC_REPRESENTATION_CONTEXT(2) 
PARAMETRIC_REPRESENTATION_CONTEXT() REPRESENTATION_CONTEXT('2D SPACE',''
  ) );
#1000 = ADVANCED_FACE('',(#1001),#277,.T.);
#1001 = FACE_BOUND('',#1002,.T.);
#1002 = EDGE_LOOP('',(#1003,#1026,#1027,#1028));
#1003 = ORIENTED_EDGE('',*,*,#1004,.F.);
#1004 = EDGE_CURVE('',#956,#1005,#1007,.T.);
#1005 = VERTEX_POINT('',#1006);
#1006 = CARTESIAN_POINT('',(3.767210506462,-6.525,-1.999999881264E-07));
#1007 = SURFACE_CURVE('',#1008,(#1012,#1019),.PCURVE_S1.);
#1008 = LINE('',#1009,#1010);
#1009 = CARTESIAN_POINT('',(-3.767210506462,-6.525,-1.999999881264E-07)
  );
#1010 = VECTOR('',#1011,1.);
#1011 = DIRECTION('',(1.,-7.07296620279E-16,0.));
#1012 = PCURVE('',#277,#1013);
#1013 = DEFINITIONAL_REPRESENTATION('',(#1014),#1018);
#1014 = LINE('',#1015,#1016);
#1015 = CARTESIAN_POINT('',(0.,0.));
#1016 = VECTOR('',#1017,1.);
#1017 = DIRECTION('',(1.,0.));
#1018 = ( GEOMETRIC_REPRESENTATION_CONTEXT(2) 
PARAMETRIC_REPRESENTATION_CONTEXT() REPRESENTATION_CONTEXT('2D SPACE',''
  ) );
#1019 = PCURVE('',#793,#1020);
#1020 = DEFINITIONAL_REPRESENTATION('',(#1021),#1025);
#1021 = LINE('',#1022,#1023);
#1022 = CARTESIAN_POINT('',(-3.767210506462,-6.525));
#1023 = VECTOR('',#1024,1.);
#1024 = DIRECTION('',(1.,-7.07296620279E-16));
#1025 = ( GEOMETRIC_REPRESENTATION_CONTEXT(2) 
PARAMETRIC_REPRESENTATION_CONTEXT() REPRESENTATION_CONTEXT('2D SPACE',''
  ) );
#1026 = ORIENTED_EDGE('',*,*,#980,.T.);
#1027 = ORIENTED_EDGE('',*,*,#262,.F.);
#1028 = ORIENTED_EDGE('',*,*,#1029,.F.);
#1029 = EDGE_CURVE('',#1005,#237,#1030,.T.);
#1030 = SURFACE_CURVE('',#1031,(#1035,#1042),.PCURVE_S1.);
#1031 = LINE('',#1032,#1033);
#1032 = CARTESIAN_POINT('',(3.767210506462,-6.525,-1.999999881264E-07));
#1033 = VECTOR('',#1034,1.);
#1034 = DIRECTION('',(0.,0.,1.));
#1035 = PCURVE('',#277,#1036);
#1036 = DEFINITIONAL_REPRESENTATION('',(#1037),#1041);
#1037 = LINE('',#1038,#1039);
#1038 = CARTESIAN_POINT('',(7.534421012925,0.));
#1039 = VECTOR('',#1040,1.);
#1040 = DIRECTION('',(0.,-1.));
#1041 = ( GEOMETRIC_REPRESENTATION_CONTEXT(2) 
PARAMETRIC_REPRESENTATION_CONTEXT() REPRESENTATION_CONTEXT('2D SPACE',''
  ) );
#1042 = PCURVE('',#251,#1043);
#1043 = DEFINITIONAL_REPRESENTATION('',(#1044),#1048);
#1044 = LINE('',#1045,#1046);
#1045 = CARTESIAN_POINT('',(0.,0.));
#1046 = VECTOR('',#1047,1.);
#1047 = DIRECTION('',(0.,-1.));
#1048 = ( GEOMETRIC_REPRESENTATION_CONTEXT(2) 
PARAMETRIC_REPRESENTATION_CONTEXT() REPRESENTATION_CONTEXT('2D SPACE',''
  ) );
#1049 = ADVANCED_FACE('',(#1050),#251,.T.);
#1050 = FACE_BOUND('',#1051,.T.);
#1051 = EDGE_LOOP('',(#1052,#1075,#1076,#1077,#1100,#1137));
#1052 = ORIENTED_EDGE('',*,*,#1053,.F.);
#1053 = EDGE_CURVE('',#1005,#1054,#1056,.T.);
#1054 = VERTEX_POINT('',#1055);
#1055 = CARTESIAN_POINT('',(7.534421012925,0.,-1.999999881264E-07));
#1056 = SURFACE_CURVE('',#1057,(#1061,#1068),.PCURVE_S1.);
#1057 = LINE('',#1058,#1059);
#1058 = CARTESIAN_POINT('',(3.767210506462,-6.525,-1.999999881264E-07));
#1059 = VECTOR('',#1060,1.);
#1060 = DIRECTION('',(0.5,0.866025403784,0.));
#1061 = PCURVE('',#251,#1062);
#1062 = DEFINITIONAL_REPRESENTATION('',(#1063),#1067);
#1063 = LINE('',#1064,#1065);
#1064 = CARTESIAN_POINT('',(0.,0.));
#1065 = VECTOR('',#1066,1.);
#1066 = DIRECTION('',(1.,0.));
#1067 = ( GEOMETRIC_REPRESENTATION_CONTEXT(2) 
PARAMETRIC_REPRESENTATION_CONTEXT() REPRESENTATION_CONTEXT('2D SPACE',''
  ) );
#1068 = PCURVE('',#793,#1069);
#1069 = DEFINITIONAL_REPRESENTATION('',(#1070),#1074);
#1070 = LINE('',#1071,#1072);
#1071 = CARTESIAN_POINT('',(3.767210506462,-6.525));
#1072 = VECTOR('',#1073,1.);
#1073 = DIRECTION('',(0.5,0.866025403784));
#1074 = ( GEOMETRIC_REPRESENTATION_CONTEXT(2) 
PARAMETRIC_REPRESENTATION_CONTEXT() REPRESENTATION_CONTEXT('2D SPACE',''
  ) );
#1075 = ORIENTED_EDGE('',*,*,#1029,.T.);
#1076 = ORIENTED_EDGE('',*,*,#236,.F.);
#1077 = ORIENTED_EDGE('',*,*,#1078,.F.);
#1078 = EDGE_CURVE('',#1079,#211,#1081,.T.);
#1079 = VERTEX_POINT('',#1080);
#1080 = CARTESIAN_POINT('',(7.534421012925,0.,80.4));
#1081 = SURFACE_CURVE('',#1082,(#1086,#1093),.PCURVE_S1.);
#1082 = LINE('',#1083,#1084);
#1083 = CARTESIAN_POINT('',(7.534421012925,0.,-1.999999881264E-07));
#1084 = VECTOR('',#1085,1.);
#1085 = DIRECTION('',(0.,0.,1.));
#1086 = PCURVE('',#251,#1087);
#1087 = DEFINITIONAL_REPRESENTATION('',(#1088),#1092);
#1088 = LINE('',#1089,#1090);
#1089 = CARTESIAN_POINT('',(7.534421012925,0.));
#1090 = VECTOR('',#1091,1.);
#1091 = DIRECTION('',(0.,-1.));
#1092 = ( GEOMETRIC_REPRESENTATION_CONTEXT(2) 
PARAMETRIC_REPRESENTATION_CONTEXT() REPRESENTATION_CONTEXT('2D SPACE',''
  ) );
#1093 = PCURVE('',#225,#1094);
#1094 = DEFINITIONAL_REPRESENTATION('',(#1095),#1099);
#1095 = LINE('',#1096,#1097);
#1096 = CARTESIAN_POINT('',(0.,0.));
#1097 = VECTOR('',#1098,1.);
#1098 = DIRECTION('',(0.,-1.));
#1099 = ( GEOMETRIC_REPRESENTATION_CONTEXT(2) 
PARAMETRIC_REPRESENTATION_CONTEXT() REPRESENTATION_CONTEXT('2D SPACE',''
  ) );
#1100 = ORIENTED_EDGE('',*,*,#1101,.F.);
#1101 = EDGE_CURVE('',#1102,#1079,#1104,.T.);
#1102 = VERTEX_POINT('',#1103);
#1103 = CARTESIAN_POINT('',(7.534421012925,0.,77.6));
#1104 = SURFACE_CURVE('',#1105,(#1110,#1117),.PCURVE_S1.);
#1105 = ELLIPSE('',#1106,1.616580753731,1.4);
#1106 = AXIS2_PLACEMENT_3D('',#1107,#1108,#1109);
#1107 = CARTESIAN_POINT('',(7.534421012925,0.,79.));
#1108 = DIRECTION('',(-0.866025403784,0.5,0.));
#1109 = DIRECTION('',(-0.5,-0.866025403784,0.));
#1110 = PCURVE('',#251,#1111);
#1111 = DEFINITIONAL_REPRESENTATION('',(#1112),#1116);
#1112 = ELLIPSE('',#1113,1.616580753731,1.4);
#1113 = AXIS2_PLACEMENT_2D('',#1114,#1115);
#1114 = CARTESIAN_POINT('',(7.534421012925,-79.0000002));
#1115 = DIRECTION('',(-1.,-0.));
#1116 = ( GEOMETRIC_REPRESENTATION_CONTEXT(2) 
PARAMETRIC_REPRESENTATION_CONTEXT() REPRESENTATION_CONTEXT('2D SPACE',''
  ) );
#1117 = PCURVE('',#571,#1118);
#1118 = DEFINITIONAL_REPRESENTATION('',(#1119),#1136);
#1119 = B_SPLINE_CURVE_WITH_KNOTS('',8,(#1120,#1121,#1122,#1123,#1124,
    #1125,#1126,#1127,#1128,#1129,#1130,#1131,#1132,#1133,#1134,#1135),
  .UNSPECIFIED.,.F.,.F.,(9,7,9),(4.227543755078,6.28318530718,
    8.338826859281),.UNSPECIFIED.);
#1120 = CARTESIAN_POINT('',(-5.197234205692,-7.911142063571));
#1121 = CARTESIAN_POINT('',(-4.940279011679,-7.72738503698));
#1122 = CARTESIAN_POINT('',(-4.683323817674,-7.51520079687));
#1123 = CARTESIAN_POINT('',(-4.426368623623,-7.293081904034));
#1124 = CARTESIAN_POINT('',(-4.169413429678,-7.083500358756));
#1125 = CARTESIAN_POINT('',(-3.912458235596,-6.909104441045));
#1126 = CARTESIAN_POINT('',(-3.655503041623,-6.787123277943));
#1127 = CARTESIAN_POINT('',(-3.398547847603,-6.726130636059));
#1128 = CARTESIAN_POINT('',(-2.884637459577,-6.726130636059));
#1129 = CARTESIAN_POINT('',(-2.627682265562,-6.78712327794));
#1130 = CARTESIAN_POINT('',(-2.370727071553,-6.909104441038));
#1131 = CARTESIAN_POINT('',(-2.113771877532,-7.083500358756));
#1132 = CARTESIAN_POINT('',(-1.856816683527,-7.293081904023));
#1133 = CARTESIAN_POINT('',(-1.599861489511,-7.515200796868));
#1134 = CARTESIAN_POINT('',(-1.342906295501,-7.72738503698));
#1135 = CARTESIAN_POINT('',(-1.085951101488,-7.911142063571));
#1136 = ( GEOMETRIC_REPRESENTATION_CONTEXT(2) 
PARAMETRIC_REPRESENTATION_CONTEXT() REPRESENTATION_CONTEXT('2D SPACE',''
  ) );
#1137 = ORIENTED_EDGE('',*,*,#1138,.F.);
#1138 = EDGE_CURVE('',#1054,#1102,#1139,.T.);
#1139 = SURFACE_CURVE('',#1140,(#1144,#1151),.PCURVE_S1.);
#1140 = LINE('',#1141,#1142);
#1141 = CARTESIAN_POINT('',(7.534421012925,0.,-1.999999881264E-07));
#1142 = VECTOR('',#1143,1.);
#1143 = DIRECTION('',(0.,0.,1.));
#1144 = PCURVE('',#251,#1145);
#1145 = DEFINITIONAL_REPRESENTATION('',(#1146),#1150);
#1146 = LINE('',#1147,#1148);
#1147 = CARTESIAN_POINT('',(7.534421012925,0.));
#1148 = VECTOR('',#1149,1.);
#1149 = DIRECTION('',(0.,-1.));
#1150 = ( GEOMETRIC_REPRESENTATION_CONTEXT(2) 
PARAMETRIC_REPRESENTATION_CONTEXT() REPRESENTATION_CONTEXT('2D SPACE',''
  ) );
#1151 = PCURVE('',#225,#1152);
#1152 = DEFINITIONAL_REPRESENTATION('',(#1153),#1157);
#1153 = LINE('',#1154,#1155);
#1154 = CARTESIAN_POINT('',(0.,0.));
#1155 = VECTOR('',#1156,1.);
#1156 = DIRECTION('',(0.,-1.));
#1157 = ( GEOMETRIC_REPRESENTATION_CONTEXT(2) 
PARAMETRIC_REPRESENTATION_CONTEXT() REPRESENTATION_CONTEXT('2D SPACE',''
  ) );
#1158 = ADVANCED_FACE('',(#1159),#225,.T.);
#1159 = FACE_BOUND('',#1160,.T.);
#1160 = EDGE_LOOP('',(#1161,#1182,#1183,#1213,#1241,#1242,#1243));
#1161 = ORIENTED_EDGE('',*,*,#1162,.F.);
#1162 = EDGE_CURVE('',#1054,#836,#1163,.T.);
#1163 = SURFACE_CURVE('',#1164,(#1168,#1175),.PCURVE_S1.);
#1164 = LINE('',#1165,#1166);
#1165 = CARTESIAN_POINT('',(7.534421012925,0.,-1.999999881264E-07));
#1166 = VECTOR('',#1167,1.);
#1167 = DIRECTION('',(-0.5,0.866025403784,0.));
#1168 = PCURVE('',#225,#1169);
#1169 = DEFINITIONAL_REPRESENTATION('',(#1170),#1174);
#1170 = LINE('',#1171,#1172);
#1171 = CARTESIAN_POINT('',(0.,0.));
#1172 = VECTOR('',#1173,1.);
#1173 = DIRECTION('',(1.,0.));
#1174 = ( GEOMETRIC_REPRESENTATION_CONTEXT(2) 
PARAMETRIC_REPRESENTATION_CONTEXT() REPRESENTATION_CONTEXT('2D SPACE',''
  ) );
#1175 = PCURVE('',#793,#1176);
#1176 = DEFINITIONAL_REPRESENTATION('',(#1177),#1181);
#1177 = LINE('',#1178,#1179);
#1178 = CARTESIAN_POINT('',(7.534421012925,-2.339560088947E-16));
#1179 = VECTOR('',#1180,1.);
#1180 = DIRECTION('',(-0.5,0.866025403784));
#1181 = ( GEOMETRIC_REPRESENTATION_CONTEXT(2) 
PARAMETRIC_REPRESENTATION_CONTEXT() REPRESENTATION_CONTEXT('2D SPACE',''
  ) );
#1182 = ORIENTED_EDGE('',*,*,#1138,.T.);
#1183 = ORIENTED_EDGE('',*,*,#1184,.F.);
#1184 = EDGE_CURVE('',#1185,#1102,#1187,.T.);
#1185 = VERTEX_POINT('',#1186);
#1186 = CARTESIAN_POINT('',(6.726130636059,1.4,79.));
#1187 = SURFACE_CURVE('',#1188,(#1193,#1200),.PCURVE_S1.);
#1188 = ELLIPSE('',#1189,1.616580753731,1.4);
#1189 = AXIS2_PLACEMENT_3D('',#1190,#1191,#1192);
#1190 = CARTESIAN_POINT('',(7.534421012925,0.,79.));
#1191 = DIRECTION('',(-0.866025403784,-0.5,0.));
#1192 = DIRECTION('',(-0.5,0.866025403784,0.));
#1193 = PCURVE('',#225,#1194);
#1194 = DEFINITIONAL_REPRESENTATION('',(#1195),#1199);
#1195 = ELLIPSE('',#1196,1.616580753731,1.4);
#1196 = AXIS2_PLACEMENT_2D('',#1197,#1198);
#1197 = CARTESIAN_POINT('',(0.,-79.0000002));
#1198 = DIRECTION('',(1.,0.));
#1199 = ( GEOMETRIC_REPRESENTATION_CONTEXT(2) 
PARAMETRIC_REPRESENTATION_CONTEXT() REPRESENTATION_CONTEXT('2D SPACE',''
  ) );
#1200 = PCURVE('',#571,#1201);
#1201 = DEFINITIONAL_REPRESENTATION('',(#1202),#1212);
#1202 = B_SPLINE_CURVE_WITH_KNOTS('',8,(#1203,#1204,#1205,#1206,#1207,
    #1208,#1209,#1210,#1211),.UNSPECIFIED.,.F.,.F.,(9,9),(0.,
    2.055641552102),.PIECEWISE_BEZIER_KNOTS.);
#1203 = CARTESIAN_POINT('',(-6.28318530718,-6.726130636059));
#1204 = CARTESIAN_POINT('',(-6.026230113167,-6.726130636059));
#1205 = CARTESIAN_POINT('',(-5.769274919153,-6.78712327794));
#1206 = CARTESIAN_POINT('',(-5.51231972515,-6.909104441038));
#1207 = CARTESIAN_POINT('',(-5.255364531122,-7.083500358756));
#1208 = CARTESIAN_POINT('',(-4.998409337123,-7.293081904023));
#1209 = CARTESIAN_POINT('',(-4.741454143102,-7.515200796868));
#1210 = CARTESIAN_POINT('',(-4.484498949091,-7.72738503698));
#1211 = CARTESIAN_POINT('',(-4.227543755078,-7.911142063571));
#1212 = ( GEOMETRIC_REPRESENTATION_CONTEXT(2) 
PARAMETRIC_REPRESENTATION_CONTEXT() REPRESENTATION_CONTEXT('2D SPACE',''
  ) );
#1213 = ORIENTED_EDGE('',*,*,#1214,.F.);
#1214 = EDGE_CURVE('',#1079,#1185,#1215,.T.);
#1215 = SURFACE_CURVE('',#1216,(#1221,#1228),.PCURVE_S1.);
#1216 = ELLIPSE('',#1217,1.616580753731,1.4);
#1217 = AXIS2_PLACEMENT_3D('',#1218,#1219,#1220);
#1218 = CARTESIAN_POINT('',(7.534421012925,0.,79.));
#1219 = DIRECTION('',(-0.866025403784,-0.5,0.));
#1220 = DIRECTION('',(-0.5,0.866025403784,0.));
#1221 = PCURVE('',#225,#1222);
#1222 = DEFINITIONAL_REPRESENTATION('',(#1223),#1227);
#1223 = ELLIPSE('',#1224,1.616580753731,1.4);
#1224 = AXIS2_PLACEMENT_2D('',#1225,#1226);
#1225 = CARTESIAN_POINT('',(0.,-79.0000002));
#1226 = DIRECTION('',(1.,0.));
#1227 = ( GEOMETRIC_REPRESENTATION_CONTEXT(2) 
PARAMETRIC_REPRESENTATION_CONTEXT() REPRESENTATION_CONTEXT('2D SPACE',''
  ) );
#1228 = PCURVE('',#571,#1229);
#1229 = DEFINITIONAL_REPRESENTATION('',(#1230),#1240);
#1230 = B_SPLINE_CURVE_WITH_KNOTS('',8,(#1231,#1232,#1233,#1234,#1235,
    #1236,#1237,#1238,#1239),.UNSPECIFIED.,.F.,.F.,(9,9),(4.227543755078
    ,6.28318530718),.PIECEWISE_BEZIER_KNOTS.);
#1231 = CARTESIAN_POINT('',(-2.055641552102,-7.911142063571));
#1232 = CARTESIAN_POINT('',(-1.798686358089,-7.72738503698));
#1233 = CARTESIAN_POINT('',(-1.541731164075,-7.51520079687));
#1234 = CARTESIAN_POINT('',(-1.284775970063,-7.293081904034));
#1235 = CARTESIAN_POINT('',(-1.027820776048,-7.083500358756));
#1236 = CARTESIAN_POINT('',(-0.770865582037,-6.909104441045));
#1237 = CARTESIAN_POINT('',(-0.513910388025,-6.787123277939));
#1238 = CARTESIAN_POINT('',(-0.256955194013,-6.726130636059));
#1239 = CARTESIAN_POINT('',(0.,-6.726130636059));
#1240 = ( GEOMETRIC_REPRESENTATION_CONTEXT(2) 
PARAMETRIC_REPRESENTATION_CONTEXT() REPRESENTATION_CONTEXT('2D SPACE',''
  ) );
#1241 = ORIENTED_EDGE('',*,*,#1078,.T.);
#1242 = ORIENTED_EDGE('',*,*,#210,.F.);
#1243 = ORIENTED_EDGE('',*,*,#860,.F.);
#1244 = ADVANCED_FACE('',(#1245),#361,.F.);
#1245 = FACE_BOUND('',#1246,.F.);
#1246 = EDGE_LOOP('',(#1247,#1275,#1296,#1297));
#1247 = ORIENTED_EDGE('',*,*,#1248,.F.);
#1248 = EDGE_CURVE('',#1249,#1249,#1251,.T.);
#1249 = VERTEX_POINT('',#1250);
#1250 = CARTESIAN_POINT('',(6.635254915624,-8.816778784387,0.));
#1251 = SURFACE_CURVE('',#1252,(#1257,#1264),.PCURVE_S1.);
#1252 = CIRCLE('',#1253,5.5);
#1253 = AXIS2_PLACEMENT_3D('',#1254,#1255,#1256);
#1254 = CARTESIAN_POINT('',(12.135254915624,-8.816778784387,0.));
#1255 = DIRECTION('',(0.,0.,-1.));
#1256 = DIRECTION('',(-1.,0.,0.));
#1257 = PCURVE('',#361,#1258);
#1258 = DEFINITIONAL_REPRESENTATION('',(#1259),#1263);
#1259 = LINE('',#1260,#1261);
#1260 = CARTESIAN_POINT('',(0.,158.));
#1261 = VECTOR('',#1262,1.);
#1262 = DIRECTION('',(1.,0.));
#1263 = ( GEOMETRIC_REPRESENTATION_CONTEXT(2) 
PARAMETRIC_REPRESENTATION_CONTEXT() REPRESENTATION_CONTEXT('2D SPACE',''
  ) );
#1264 = PCURVE('',#793,#1265);
#1265 = DEFINITIONAL_REPRESENTATION('',(#1266),#1274);
#1266 = ( BOUNDED_CURVE() B_SPLINE_CURVE(2,(#1267,#1268,#1269,#1270,
#1271,#1272,#1273),.UNSPECIFIED.,.T.,.F.) B_SPLINE_CURVE_WITH_KNOTS((1,2
    ,2,2,2,1),(-2.094395102393,0.,2.094395102393,4.188790204786,
6.28318530718,8.377580409573),.UNSPECIFIED.) CURVE() 
GEOMETRIC_REPRESENTATION_ITEM() RATIONAL_B_SPLINE_CURVE((1.,0.5,1.,0.5,
1.,0.5,1.)) REPRESENTATION_ITEM('') );
#1267 = CARTESIAN_POINT('',(6.635254915624,-8.816778784387));
#1268 = CARTESIAN_POINT('',(6.635254915624,0.709500657242));
#1269 = CARTESIAN_POINT('',(14.885254915624,-4.053639063573));
#1270 = CARTESIAN_POINT('',(23.135254915624,-8.816778784387));
#1271 = CARTESIAN_POINT('',(14.885254915624,-13.5799185052));
#1272 = CARTESIAN_POINT('',(6.635254915624,-18.34305822601));
#1273 = CARTESIAN_POINT('',(6.635254915624,-8.816778784387));
#1274 = ( GEOMETRIC_REPRESENTATION_CONTEXT(2) 
PARAMETRIC_REPRESENTATION_CONTEXT() REPRESENTATION_CONTEXT('2D SPACE',''
  ) );
#1275 = ORIENTED_EDGE('',*,*,#1276,.F.);
#1276 = EDGE_CURVE('',#341,#1249,#1277,.T.);
#1277 = SEAM_CURVE('',#1278,(#1282,#1289),.PCURVE_S1.);
#1278 = LINE('',#1279,#1280);
#1279 = CARTESIAN_POINT('',(6.635254915624,-8.816778784387,158.));
#1280 = VECTOR('',#1281,1.);
#1281 = DIRECTION('',(0.,0.,-1.));
#1282 = PCURVE('',#361,#1283);
#1283 = DEFINITIONAL_REPRESENTATION('',(#1284),#1288);
#1284 = LINE('',#1285,#1286);
#1285 = CARTESIAN_POINT('',(6.28318530718,-0.));
#1286 = VECTOR('',#1287,1.);
#1287 = DIRECTION('',(0.,1.));
#1288 = ( GEOMETRIC_REPRESENTATION_CONTEXT(2) 
PARAMETRIC_REPRESENTATION_CONTEXT() REPRESENTATION_CONTEXT('2D SPACE',''
  ) );
#1289 = PCURVE('',#361,#1290);
#1290 = DEFINITIONAL_REPRESENTATION('',(#1291),#1295);
#1291 = LINE('',#1292,#1293);
#1292 = CARTESIAN_POINT('',(0.,-0.));
#1293 = VECTOR('',#1294,1.);
#1294 = DIRECTION('',(0.,1.));
#1295 = ( GEOMETRIC_REPRESENTATION_CONTEXT(2) 
PARAMETRIC_REPRESENTATION_CONTEXT() REPRESENTATION_CONTEXT('2D SPACE',''
  ) );
#1296 = ORIENTED_EDGE('',*,*,#340,.T.);
#1297 = ORIENTED_EDGE('',*,*,#1276,.T.);
#1298 = ADVANCED_FACE('',(#1299),#396,.F.);
#1299 = FACE_BOUND('',#1300,.F.);
#1300 = EDGE_LOOP('',(#1301,#1329,#1350,#1351));
#1301 = ORIENTED_EDGE('',*,*,#1302,.F.);
#1302 = EDGE_CURVE('',#1303,#1303,#1305,.T.);
#1303 = VERTEX_POINT('',#1304);
#1304 = CARTESIAN_POINT('',(-20.5,4.898587196589E-16,0.));
#1305 = SURFACE_CURVE('',#1306,(#1311,#1318),.PCURVE_S1.);
#1306 = CIRCLE('',#1307,5.5);
#1307 = AXIS2_PLACEMENT_3D('',#1308,#1309,#1310);
#1308 = CARTESIAN_POINT('',(-15.,1.836970198721E-15,0.));
#1309 = DIRECTION('',(0.,0.,-1.));
#1310 = DIRECTION('',(-1.,0.,0.));
#1311 = PCURVE('',#396,#1312);
#1312 = DEFINITIONAL_REPRESENTATION('',(#1313),#1317);
#1313 = LINE('',#1314,#1315);
#1314 = CARTESIAN_POINT('',(0.,158.));
#1315 = VECTOR('',#1316,1.);
#1316 = DIRECTION('',(1.,0.));
#1317 = ( GEOMETRIC_REPRESENTATION_CONTEXT(2) 
PARAMETRIC_REPRESENTATION_CONTEXT() REPRESENTATION_CONTEXT('2D SPACE',''
  ) );
#1318 = PCURVE('',#793,#1319);
#1319 = DEFINITIONAL_REPRESENTATION('',(#1320),#1328);
#1320 = ( BOUNDED_CURVE() B_SPLINE_CURVE(2,(#1321,#1322,#1323,#1324,
#1325,#1326,#1327),.UNSPECIFIED.,.T.,.F.) B_SPLINE_CURVE_WITH_KNOTS((1,2
    ,2,2,2,1),(-2.094395102393,0.,2.094395102393,4.188790204786,
6.28318530718,8.377580409573),.UNSPECIFIED.) CURVE() 
GEOMETRIC_REPRESENTATION_ITEM() RATIONAL_B_SPLINE_CURVE((1.,0.5,1.,0.5,
1.,0.5,1.)) REPRESENTATION_ITEM('') );
#1321 = CARTESIAN_POINT('',(-20.5,1.603014189826E-15));
#1322 = CARTESIAN_POINT('',(-20.5,9.526279441629));
#1323 = CARTESIAN_POINT('',(-12.25,4.763139720814));
#1324 = CARTESIAN_POINT('',(-4.,2.950125668888E-15));
#1325 = CARTESIAN_POINT('',(-12.25,-4.763139720814));
#1326 = CARTESIAN_POINT('',(-20.5,-9.526279441629));
#1327 = CARTESIAN_POINT('',(-20.5,1.603014189826E-15));
#1328 = ( GEOMETRIC_REPRESENTATION_CONTEXT(2) 
PARAMETRIC_REPRESENTATION_CONTEXT() REPRESENTATION_CONTEXT('2D SPACE',''
  ) );
#1329 = ORIENTED_EDGE('',*,*,#1330,.F.);
#1330 = EDGE_CURVE('',#376,#1303,#1331,.T.);
#1331 = SEAM_CURVE('',#1332,(#1336,#1343),.PCURVE_S1.);
#1332 = LINE('',#1333,#1334);
#1333 = CARTESIAN_POINT('',(-20.5,4.898587196589E-16,158.));
#1334 = VECTOR('',#1335,1.);
#1335 = DIRECTION('',(0.,0.,-1.));
#1336 = PCURVE('',#396,#1337);
#1337 = DEFINITIONAL_REPRESENTATION('',(#1338),#1342);
#1338 = LINE('',#1339,#1340);
#1339 = CARTESIAN_POINT('',(6.28318530718,-0.));
#1340 = VECTOR('',#1341,1.);
#1341 = DIRECTION('',(0.,1.));
#1342 = ( GEOMETRIC_REPRESENTATION_CONTEXT(2) 
PARAMETRIC_REPRESENTATION_CONTEXT() REPRESENTATION_CONTEXT('2D SPACE',''
  ) );
#1343 = PCURVE('',#396,#1344);
#1344 = DEFINITIONAL_REPRESENTATION('',(#1345),#1349);
#1345 = LINE('',#1346,#1347);
#1346 = CARTESIAN_POINT('',(0.,-0.));
#1347 = VECTOR('',#1348,1.);
#1348 = DIRECTION('',(0.,1.));
#1349 = ( GEOMETRIC_REPRESENTATION_CONTEXT(2) 
PARAMETRIC_REPRESENTATION_CONTEXT() REPRESENTATION_CONTEXT('2D SPACE',''
  ) );
#1350 = ORIENTED_EDGE('',*,*,#375,.T.);
#1351 = ORIENTED_EDGE('',*,*,#1330,.T.);
#1352 = ADVANCED_FACE('',(#1353),#431,.F.);
#1353 = FACE_BOUND('',#1354,.F.);
#1354 = EDGE_LOOP('',(#1355,#1383,#1404,#1405));
#1355 = ORIENTED_EDGE('',*,*,#1356,.F.);
#1356 = EDGE_CURVE('',#1357,#1357,#1359,.T.);
#1357 = VERTEX_POINT('',#1358);
#1358 = CARTESIAN_POINT('',(-10.13525491562,14.265847744427,0.));
#1359 = SURFACE_CURVE('',#1360,(#1365,#1372),.PCURVE_S1.);
#1360 = CIRCLE('',#1361,5.5);
#1361 = AXIS2_PLACEMENT_3D('',#1362,#1363,#1364);
#1362 = CARTESIAN_POINT('',(-4.635254915624,14.265847744427,0.));
#1363 = DIRECTION('',(0.,0.,-1.));
#1364 = DIRECTION('',(-1.,0.,0.));
#1365 = PCURVE('',#431,#1366);
#1366 = DEFINITIONAL_REPRESENTATION('',(#1367),#1371);
#1367 = LINE('',#1368,#1369);
#1368 = CARTESIAN_POINT('',(0.,158.));
#1369 = VECTOR('',#1370,1.);
#1370 = DIRECTION('',(1.,0.));
#1371 = ( GEOMETRIC_REPRESENTATION_CONTEXT(2) 
PARAMETRIC_REPRESENTATION_CONTEXT() REPRESENTATION_CONTEXT('2D SPACE',''
  ) );
#1372 = PCURVE('',#793,#1373);
#1373 = DEFINITIONAL_REPRESENTATION('',(#1374),#1382);
#1374 = ( BOUNDED_CURVE() B_SPLINE_CURVE(2,(#1375,#1376,#1377,#1378,
#1379,#1380,#1381),.UNSPECIFIED.,.T.,.F.) B_SPLINE_CURVE_WITH_KNOTS((1,2
    ,2,2,2,1),(-2.094395102393,0.,2.094395102393,4.188790204786,
6.28318530718,8.377580409573),.UNSPECIFIED.) CURVE() 
GEOMETRIC_REPRESENTATION_ITEM() RATIONAL_B_SPLINE_CURVE((1.,0.5,1.,0.5,
1.,0.5,1.)) REPRESENTATION_ITEM('') );
#1375 = CARTESIAN_POINT('',(-10.13525491562,14.265847744427));
#1376 = CARTESIAN_POINT('',(-10.13525491562,23.792127186056));
#1377 = CARTESIAN_POINT('',(-1.885254915624,19.028987465242));
#1378 = CARTESIAN_POINT('',(6.364745084376,14.265847744427));
#1379 = CARTESIAN_POINT('',(-1.885254915624,9.502708023613));
#1380 = CARTESIAN_POINT('',(-10.13525491562,4.739568302798));
#1381 = CARTESIAN_POINT('',(-10.13525491562,14.265847744427));
#1382 = ( GEOMETRIC_REPRESENTATION_CONTEXT(2) 
PARAMETRIC_REPRESENTATION_CONTEXT() REPRESENTATION_CONTEXT('2D SPACE',''
  ) );
#1383 = ORIENTED_EDGE('',*,*,#1384,.F.);
#1384 = EDGE_CURVE('',#411,#1357,#1385,.T.);
#1385 = SEAM_CURVE('',#1386,(#1390,#1397),.PCURVE_S1.);
#1386 = LINE('',#1387,#1388);
#1387 = CARTESIAN_POINT('',(-10.13525491562,14.265847744427,158.));
#1388 = VECTOR('',#1389,1.);
#1389 = DIRECTION('',(0.,0.,-1.));
#1390 = PCURVE('',#431,#1391);
#1391 = DEFINITIONAL_REPRESENTATION('',(#1392),#1396);
#1392 = LINE('',#1393,#1394);
#1393 = CARTESIAN_POINT('',(6.28318530718,-0.));
#1394 = VECTOR('',#1395,1.);
#1395 = DIRECTION('',(0.,1.));
#1396 = ( GEOMETRIC_REPRESENTATION_CONTEXT(2) 
PARAMETRIC_REPRESENTATION_CONTEXT() REPRESENTATION_CONTEXT('2D SPACE',''
  ) );
#1397 = PCURVE('',#431,#1398);
#1398 = DEFINITIONAL_REPRESENTATION('',(#1399),#1403);
#1399 = LINE('',#1400,#1401);
#1400 = CARTESIAN_POINT('',(0.,-0.));
#1401 = VECTOR('',#1402,1.);
#1402 = DIRECTION('',(0.,1.));
#1403 = ( GEOMETRIC_REPRESENTATION_CONTEXT(2) 
PARAMETRIC_REPRESENTATION_CONTEXT() REPRESENTATION_CONTEXT('2D SPACE',''
  ) );
#1404 = ORIENTED_EDGE('',*,*,#410,.T.);
#1405 = ORIENTED_EDGE('',*,*,#1384,.T.);
#1406 = ADVANCED_FACE('',(#1407),#466,.F.);
#1407 = FACE_BOUND('',#1408,.F.);
#1408 = EDGE_LOOP('',(#1409,#1437,#1458,#1459));
#1409 = ORIENTED_EDGE('',*,*,#1410,.F.);
#1410 = EDGE_CURVE('',#1411,#1411,#1413,.T.);
#1411 = VERTEX_POINT('',#1412);
#1412 = CARTESIAN_POINT('',(6.635254915624,8.816778784387,0.));
#1413 = SURFACE_CURVE('',#1414,(#1419,#1426),.PCURVE_S1.);
#1414 = CIRCLE('',#1415,5.5);
#1415 = AXIS2_PLACEMENT_3D('',#1416,#1417,#1418);
#1416 = CARTESIAN_POINT('',(12.135254915624,8.816778784387,0.));
#1417 = DIRECTION('',(0.,0.,-1.));
#1418 = DIRECTION('',(-1.,0.,0.));
#1419 = PCURVE('',#466,#1420);
#1420 = DEFINITIONAL_REPRESENTATION('',(#1421),#1425);
#1421 = LINE('',#1422,#1423);
#1422 = CARTESIAN_POINT('',(0.,158.));
#1423 = VECTOR('',#1424,1.);
#1424 = DIRECTION('',(1.,0.));
#1425 = ( GEOMETRIC_REPRESENTATION_CONTEXT(2) 
PARAMETRIC_REPRESENTATION_CONTEXT() REPRESENTATION_CONTEXT('2D SPACE',''
  ) );
#1426 = PCURVE('',#793,#1427);
#1427 = DEFINITIONAL_REPRESENTATION('',(#1428),#1436);
#1428 = ( BOUNDED_CURVE() B_SPLINE_CURVE(2,(#1429,#1430,#1431,#1432,
#1433,#1434,#1435),.UNSPECIFIED.,.T.,.F.) B_SPLINE_CURVE_WITH_KNOTS((1,2
    ,2,2,2,1),(-2.094395102393,0.,2.094395102393,4.188790204786,
6.28318530718,8.377580409573),.UNSPECIFIED.) CURVE() 
GEOMETRIC_REPRESENTATION_ITEM() RATIONAL_B_SPLINE_CURVE((1.,0.5,1.,0.5,
1.,0.5,1.)) REPRESENTATION_ITEM('') );
#1429 = CARTESIAN_POINT('',(6.635254915624,8.816778784387));
#1430 = CARTESIAN_POINT('',(6.635254915624,18.343058226016));
#1431 = CARTESIAN_POINT('',(14.885254915624,13.579918505202));
#1432 = CARTESIAN_POINT('',(23.135254915624,8.816778784387));
#1433 = CARTESIAN_POINT('',(14.885254915624,4.053639063573));
#1434 = CARTESIAN_POINT('',(6.635254915624,-0.709500657242));
#1435 = CARTESIAN_POINT('',(6.635254915624,8.816778784387));
#1436 = ( GEOMETRIC_REPRESENTATION_CONTEXT(2) 
PARAMETRIC_REPRESENTATION_CONTEXT() REPRESENTATION_CONTEXT('2D SPACE',''
  ) );
#1437 = ORIENTED_EDGE('',*,*,#1438,.F.);
#1438 = EDGE_CURVE('',#446,#1411,#1439,.T.);
#1439 = SEAM_CURVE('',#1440,(#1444,#1451),.PCURVE_S1.);
#1440 = LINE('',#1441,#1442);
#1441 = CARTESIAN_POINT('',(6.635254915624,8.816778784387,158.));
#1442 = VECTOR('',#1443,1.);
#1443 = DIRECTION('',(0.,0.,-1.));
#1444 = PCURVE('',#466,#1445);
#1445 = DEFINITIONAL_REPRESENTATION('',(#1446),#1450);
#1446 = LINE('',#1447,#1448);
#1447 = CARTESIAN_POINT('',(6.28318530718,-0.));
#1448 = VECTOR('',#1449,1.);
#1449 = DIRECTION('',(0.,1.));
#1450 = ( GEOMETRIC_REPRESENTATION_CONTEXT(2) 
PARAMETRIC_REPRESENTATION_CONTEXT() REPRESENTATION_CONTEXT('2D SPACE',''
  ) );
#1451 = PCURVE('',#466,#1452);
#1452 = DEFINITIONAL_REPRESENTATION('',(#1453),#1457);
#1453 = LINE('',#1454,#1455);
#1454 = CARTESIAN_POINT('',(0.,-0.));
#1455 = VECTOR('',#1456,1.);
#1456 = DIRECTION('',(0.,1.));
#1457 = ( GEOMETRIC_REPRESENTATION_CONTEXT(2) 
PARAMETRIC_REPRESENTATION_CONTEXT() REPRESENTATION_CONTEXT('2D SPACE',''
  ) );
#1458 = ORIENTED_EDGE('',*,*,#445,.T.);
#1459 = ORIENTED_EDGE('',*,*,#1438,.T.);
#1460 = ADVANCED_FACE('',(#1461,#1492),#498,.T.);
#1461 = FACE_BOUND('',#1462,.T.);
#1462 = EDGE_LOOP('',(#1463));
#1463 = ORIENTED_EDGE('',*,*,#1464,.T.);
#1464 = EDGE_CURVE('',#1465,#1465,#1467,.T.);
#1465 = VERTEX_POINT('',#1466);
#1466 = CARTESIAN_POINT('',(30.,0.,4.));
#1467 = SURFACE_CURVE('',#1468,(#1473,#1480),.PCURVE_S1.);
#1468 = CIRCLE('',#1469,30.);
#1469 = AXIS2_PLACEMENT_3D('',#1470,#1471,#1472);
#1470 = CARTESIAN_POINT('',(0.,0.,4.));
#1471 = DIRECTION('',(0.,0.,1.));
#1472 = DIRECTION('',(1.,0.,0.));
#1473 = PCURVE('',#498,#1474);
#1474 = DEFINITIONAL_REPRESENTATION('',(#1475),#1479);
#1475 = CIRCLE('',#1476,30.);
#1476 = AXIS2_PLACEMENT_2D('',#1477,#1478);
#1477 = CARTESIAN_POINT('',(1.458602808042E-15,-2.339560088947E-16));
#1478 = DIRECTION('',(1.,0.));
#1479 = ( GEOMETRIC_REPRESENTATION_CONTEXT(2) 
PARAMETRIC_REPRESENTATION_CONTEXT() REPRESENTATION_CONTEXT('2D SPACE',''
  ) );
#1480 = PCURVE('',#1481,#1486);
#1481 = CYLINDRICAL_SURFACE('',#1482,30.);
#1482 = AXIS2_PLACEMENT_3D('',#1483,#1484,#1485);
#1483 = CARTESIAN_POINT('',(0.,0.,0.));
#1484 = DIRECTION('',(-0.,-0.,-1.));
#1485 = DIRECTION('',(1.,0.,0.));
#1486 = DEFINITIONAL_REPRESENTATION('',(#1487),#1491);
#1487 = LINE('',#1488,#1489);
#1488 = CARTESIAN_POINT('',(-0.,-4.));
#1489 = VECTOR('',#1490,1.);
#1490 = DIRECTION('',(-1.,0.));
#1491 = ( GEOMETRIC_REPRESENTATION_CONTEXT(2) 
PARAMETRIC_REPRESENTATION_CONTEXT() REPRESENTATION_CONTEXT('2D SPACE',''
  ) );
#1492 = FACE_BOUND('',#1493,.T.);
#1493 = EDGE_LOOP('',(#1494));
#1494 = ORIENTED_EDGE('',*,*,#481,.F.);
#1495 = ADVANCED_FACE('',(#1496),#571,.F.);
#1496 = FACE_BOUND('',#1497,.T.);
#1497 = EDGE_LOOP('',(#1498,#1499,#1520,#1521,#1522,#1523,#1524,#1525));
#1498 = ORIENTED_EDGE('',*,*,#1214,.T.);
#1499 = ORIENTED_EDGE('',*,*,#1500,.T.);
#1500 = EDGE_CURVE('',#1185,#534,#1501,.T.);
#1501 = SEAM_CURVE('',#1502,(#1506,#1513),.PCURVE_S1.);
#1502 = LINE('',#1503,#1504);
#1503 = CARTESIAN_POINT('',(0.,1.4,79.));
#1504 = VECTOR('',#1505,1.);
#1505 = DIRECTION('',(1.,0.,0.));
#1506 = PCURVE('',#571,#1507);
#1507 = DEFINITIONAL_REPRESENTATION('',(#1508),#1512);
#1508 = LINE('',#1509,#1510);
#1509 = CARTESIAN_POINT('',(-6.28318530718,0.));
#1510 = VECTOR('',#1511,1.);
#1511 = DIRECTION('',(-0.,-1.));
#1512 = ( GEOMETRIC_REPRESENTATION_CONTEXT(2) 
PARAMETRIC_REPRESENTATION_CONTEXT() REPRESENTATION_CONTEXT('2D SPACE',''
  ) );
#1513 = PCURVE('',#571,#1514);
#1514 = DEFINITIONAL_REPRESENTATION('',(#1515),#1519);
#1515 = LINE('',#1516,#1517);
#1516 = CARTESIAN_POINT('',(-0.,0.));
#1517 = VECTOR('',#1518,1.);
#1518 = DIRECTION('',(-0.,-1.));
#1519 = ( GEOMETRIC_REPRESENTATION_CONTEXT(2) 
PARAMETRIC_REPRESENTATION_CONTEXT() REPRESENTATION_CONTEXT('2D SPACE',''
  ) );
#1520 = ORIENTED_EDGE('',*,*,#594,.T.);
#1521 = ORIENTED_EDGE('',*,*,#682,.T.);
#1522 = ORIENTED_EDGE('',*,*,#533,.T.);
#1523 = ORIENTED_EDGE('',*,*,#1500,.F.);
#1524 = ORIENTED_EDGE('',*,*,#1184,.T.);
#1525 = ORIENTED_EDGE('',*,*,#1101,.T.);
#1526 = ADVANCED_FACE('',(#1527,#1553,#1556,#1559,#1562,#1565,#1573),
  #793,.F.);
#1527 = FACE_BOUND('',#1528,.F.);
#1528 = EDGE_LOOP('',(#1529));
#1529 = ORIENTED_EDGE('',*,*,#1530,.T.);
#1530 = EDGE_CURVE('',#1531,#1531,#1533,.T.);
#1531 = VERTEX_POINT('',#1532);
#1532 = CARTESIAN_POINT('',(30.,0.,0.));
#1533 = SURFACE_CURVE('',#1534,(#1539,#1546),.PCURVE_S1.);
#1534 = CIRCLE('',#1535,30.);
#1535 = AXIS2_PLACEMENT_3D('',#1536,#1537,#1538);
#1536 = CARTESIAN_POINT('',(0.,0.,0.));
#1537 = DIRECTION('',(0.,0.,1.));
#1538 = DIRECTION('',(1.,0.,0.));
#1539 = PCURVE('',#793,#1540);
#1540 = DEFINITIONAL_REPRESENTATION('',(#1541),#1545);
#1541 = CIRCLE('',#1542,30.);
#1542 = AXIS2_PLACEMENT_2D('',#1543,#1544);
#1543 = CARTESIAN_POINT('',(1.458602808042E-15,-2.339560088947E-16));
#1544 = DIRECTION('',(1.,0.));
#1545 = ( GEOMETRIC_REPRESENTATION_CONTEXT(2) 
PARAMETRIC_REPRESENTATION_CONTEXT() REPRESENTATION_CONTEXT('2D SPACE',''
  ) );
#1546 = PCURVE('',#1481,#1547);
#1547 = DEFINITIONAL_REPRESENTATION('',(#1548),#1552);
#1548 = LINE('',#1549,#1550);
#1549 = CARTESIAN_POINT('',(-0.,0.));
#1550 = VECTOR('',#1551,1.);
#1551 = DIRECTION('',(-1.,0.));
#1552 = ( GEOMETRIC_REPRESENTATION_CONTEXT(2) 
PARAMETRIC_REPRESENTATION_CONTEXT() REPRESENTATION_CONTEXT('2D SPACE',''
  ) );
#1553 = FACE_BOUND('',#1554,.F.);
#1554 = EDGE_LOOP('',(#1555));
#1555 = ORIENTED_EDGE('',*,*,#776,.T.);
#1556 = FACE_BOUND('',#1557,.F.);
#1557 = EDGE_LOOP('',(#1558));
#1558 = ORIENTED_EDGE('',*,*,#1248,.T.);
#1559 = FACE_BOUND('',#1560,.F.);
#1560 = EDGE_LOOP('',(#1561));
#1561 = ORIENTED_EDGE('',*,*,#1302,.T.);
#1562 = FACE_BOUND('',#1563,.F.);
#1563 = EDGE_LOOP('',(#1564));
#1564 = ORIENTED_EDGE('',*,*,#1356,.T.);
#1565 = FACE_BOUND('',#1566,.F.);
#1566 = EDGE_LOOP('',(#1567,#1568,#1569,#1570,#1571,#1572));
#1567 = ORIENTED_EDGE('',*,*,#1162,.F.);
#1568 = ORIENTED_EDGE('',*,*,#1053,.F.);
#1569 = ORIENTED_EDGE('',*,*,#1004,.F.);
#1570 = ORIENTED_EDGE('',*,*,#955,.F.);
#1571 = ORIENTED_EDGE('',*,*,#906,.F.);
#1572 = ORIENTED_EDGE('',*,*,#835,.F.);
#1573 = FACE_BOUND('',#1574,.F.);
#1574 = EDGE_LOOP('',(#1575));
#1575 = ORIENTED_EDGE('',*,*,#1410,.T.);
#1576 = ADVANCED_FACE('',(#1577),#1481,.T.);
#1577 = FACE_BOUND('',#1578,.F.);
#1578 = EDGE_LOOP('',(#1579,#1600,#1601,#1602));
#1579 = ORIENTED_EDGE('',*,*,#1580,.T.);
#1580 = EDGE_CURVE('',#1531,#1465,#1581,.T.);
#1581 = SEAM_CURVE('',#1582,(#1586,#1593),.PCURVE_S1.);
#1582 = LINE('',#1583,#1584);
#1583 = CARTESIAN_POINT('',(30.,0.,0.));
#1584 = VECTOR('',#1585,1.);
#1585 = DIRECTION('',(0.,0.,1.));
#1586 = PCURVE('',#1481,#1587);
#1587 = DEFINITIONAL_REPRESENTATION('',(#1588),#1592);
#1588 = LINE('',#1589,#1590);
#1589 = CARTESIAN_POINT('',(-0.,0.));
#1590 = VECTOR('',#1591,1.);
#1591 = DIRECTION('',(-0.,-1.));
#1592 = ( GEOMETRIC_REPRESENTATION_CONTEXT(2) 
PARAMETRIC_REPRESENTATION_CONTEXT() REPRESENTATION_CONTEXT('2D SPACE',''
  ) );
#1593 = PCURVE('',#1481,#1594);
#1594 = DEFINITIONAL_REPRESENTATION('',(#1595),#1599);
#1595 = LINE('',#1596,#1597);
#1596 = CARTESIAN_POINT('',(-6.28318530718,0.));
#1597 = VECTOR('',#1598,1.);
#1598 = DIRECTION('',(-0.,-1.));
#1599 = ( GEOMETRIC_REPRESENTATION_CONTEXT(2) 
PARAMETRIC_REPRESENTATION_CONTEXT() REPRESENTATION_CONTEXT('2D SPACE',''
  ) );
#1600 = ORIENTED_EDGE('',*,*,#1464,.T.);
#1601 = ORIENTED_EDGE('',*,*,#1580,.F.);
#1602 = ORIENTED_EDGE('',*,*,#1530,.F.);
#1603 = ( GEOMETRIC_REPRESENTATION_CONTEXT(3) 
GLOBAL_UNCERTAINTY_ASSIGNED_CONTEXT((#1607)) 
GLOBAL_UNIT_ASSIGNED_CONTEXT((#1604,#1605,#1606)) REPRESENTATION_CONTEXT
('Context #1','3D Context with UNIT and UNCERTAINTY') );
#1604 = ( LENGTH_UNIT() NAMED_UNIT(*) SI_UNIT(.MILLI.,.METRE.) );
#1605 = ( NAMED_UNIT(*) PLANE_ANGLE_UNIT() SI_UNIT($,.RADIAN.) );
#1606 = ( NAMED_UNIT(*) SI_UNIT($,.STERADIAN.) SOLID_ANGLE_UNIT() );
#1607 = UNCERTAINTY_MEASURE_WITH_UNIT(LENGTH_MEASURE(2.E-07),#1604,
  'distance_accuracy_value','confusion accuracy');
#1608 = PRODUCT_RELATED_PRODUCT_CATEGORY('part',$,(#7));
ENDSEC;
END-ISO-10303-21;
